<?xml version="1.0" encoding="UTF-8" standalone="no"?>
<svg
   xmlns:dc="http://purl.org/dc/elements/1.1/"
   xmlns:cc="http://creativecommons.org/ns#"
   xmlns:rdf="http://www.w3.org/1999/02/22-rdf-syntax-ns#"
   xmlns:svg="http://www.w3.org/2000/svg"
   xmlns="http://www.w3.org/2000/svg"
   xmlns:sodipodi="http://sodipodi.sourceforge.net/DTD/sodipodi-0.dtd"
   xmlns:inkscape="http://www.inkscape.org/namespaces/inkscape"
   version="1.0"
   width="1000"
   height="195.49899"
   viewBox="0 0 1000 195.499"
   id="svg1936"
   inkscape:version="0.91 r13725"
   sodipodi:docname="Amazon.svg">
  <metadata
     id="metadata21">
    <rdf:RDF>
      <cc:Work
         rdf:about="">
        <dc:format>image/svg+xml</dc:format>
        <dc:type
           rdf:resource="http://purl.org/dc/dcmitype/StillImage" />
        <dc:title></dc:title>
      </cc:Work>
    </rdf:RDF>
  </metadata>
  <sodipodi:namedview
     pagecolor="#ffffff"
     bordercolor="#666666"
     borderopacity="1"
     objecttolerance="10"
     gridtolerance="10"
     guidetolerance="10"
     inkscape:pageopacity="0"
     inkscape:pageshadow="2"
     inkscape:window-width="1366"
     inkscape:window-height="705"
     id="namedview19"
     showgrid="false"
     inkscape:zoom="0.72245926"
     inkscape:cx="426.12453"
     inkscape:cy="39.449727"
     inkscape:window-x="-8"
     inkscape:window-y="-8"
     inkscape:window-maximized="1"
     inkscape:current-layer="svg1936" />
  <defs
     id="defs1938" />
  <path
     d="M 402.46213,152.88634 C 364.76308,180.67353 310.1206,195.499 263.07446,195.499 c -65.9663,0 -125.35289,-24.39849 -170.281138,-64.97793 -3.529868,-3.19103 -0.367119,-7.53982 3.868745,-5.0548 48.486343,28.21077 108.437743,45.18241 170.365863,45.18241 41.76544,0 87.71029,-8.64115 129.95583,-26.5729 6.38201,-2.71096 11.71918,4.17937 5.47837,8.81056"
     id="path8"
     style="fill:#ff9900;fill-opacity:1;fill-rule:evenodd;stroke:none"
     inkscape:connector-curvature="0" />
  <path
     d="m 418.13478,134.95459 c -4.80065,-6.1561 -31.8536,-2.90862 -43.99636,-1.46843 -3.69932,0.45183 -4.26408,-2.76742 -0.9319,-5.08303 21.54636,-15.16434 56.90159,-10.78729 61.02448,-5.70428 4.12288,5.11127 -1.07308,40.55122 -21.32045,57.46636 -3.10629,2.59798 -6.07138,1.21429 -4.68766,-2.23088 4.54647,-11.35208 14.74076,-36.7954 9.91189,-42.97974"
     id="path10"
     style="fill:#ff9900;fill-opacity:1;fill-rule:evenodd;stroke:none"
     inkscape:connector-curvature="0" />
  <path
     d="m 374.98559,21.349107 0,-14.740752 c 0,-2.2308798 1.69434,-3.7275435 3.72755,-3.7275435 l 65.99451,0 c 2.11794,0 3.81228,1.5249061 3.81228,3.7275435 l 0,12.622831 c -0.0282,2.117921 -1.8073,4.885342 -4.97008,9.262385 l -34.19741,48.825227 c 12.70756,-0.310612 26.12108,1.58138 37.64259,8.076355 2.59798,1.468422 3.30396,3.614585 3.50163,5.732527 l 0,15.72912 c 0,2.14616 -2.37208,4.65941 -4.85711,3.36043 -20.30384,-10.646108 -47.27208,-11.803906 -69.72208,0.11296 -2.28735,1.24252 -4.68766,-1.24251 -4.68766,-3.38868 l 0,-14.938423 c 0,-2.400313 0.0282,-6.494986 2.42853,-10.137813 l 39.61932,-56.816855 -34.47981,0 c -2.11792,0 -3.81226,-1.496653 -3.81226,-3.699312"
     id="path12"
     style="fill:#000000;fill-rule:evenodd;stroke:none"
     inkscape:connector-curvature="0" />
  <path
     d="m 134.24816,113.32351 -20.07792,0 c -1.92024,-0.14118 -3.44515,-1.58137 -3.58635,-3.41692 l 0,-103.0440642 c 0,-2.061447 1.72258,-3.6993227 3.86874,-3.6993227 l 18.72245,0 c 1.94851,0.084663 3.50163,1.5813802 3.64284,3.4451519 l 0,13.470017 0.36711,0 c 4.88534,-13.0181926 14.063,-19.08957463 26.43169,-19.08957463 12.56635,0 20.41679,6.07138203 26.06459,19.08957463 4.85711,-13.0181926 15.89855,-19.08957463 27.7307,-19.08957463 8.41522,0 17.62113,3.47339423 23.24069,11.26735763 6.35377,8.66937 5.05477,21.263959 5.05477,32.30542 l -0.0282,65.034405 c 0,2.06144 -1.72258,3.72753 -3.86874,3.72753 l -20.0497,0 c -2.00495,-0.14118 -3.61457,-1.7508 -3.61457,-3.72753 l 0,-54.614222 c 0,-4.348801 0.39532,-15.192576 -0.56479,-19.315481 -1.49666,-6.918535 -5.98666,-8.867045 -11.80391,-8.867045 -4.85711,0 -9.94012,3.247487 -12.00157,8.443474 -2.06145,5.195975 -1.86377,13.893566 -1.86377,19.739052 l 0,54.614222 c 0,2.06144 -1.72258,3.72753 -3.86875,3.72753 l -20.04967,0 c -2.03321,-0.14118 -3.6146,-1.7508 -3.6146,-3.72753 l -0.0282,-54.614222 c 0,-11.493265 1.89199,-28.408433 -12.36868,-28.408433 -14.43014,0 -13.86536,16.491565 -13.86536,28.408433 l 0,54.614222 c 0,2.06144 -1.72258,3.72753 -3.86874,3.72753"
     id="path14"
     style="fill:#000000;fill-rule:evenodd;stroke:none"
     inkscape:connector-curvature="0" />
  <path
     d="m 505.33679,0.98879737 c 29.79214,0 45.91659,25.58452763 45.91659,58.11585463 0,31.429992 -17.81882,56.365018 -45.91659,56.365018 -29.25561,0 -45.18241,-25.584526 -45.18241,-57.466342 0,-32.079503 16.12447,-57.01453063 45.18241,-57.01453063 M 505.50621,22.02686 c -14.79722,0 -15.72912,20.162623 -15.72912,32.728991 0,12.594589 -0.19767,39.478105 15.5597,39.478105 15.55968,0 16.2939,-21.68753 16.2939,-34.903408 0,-8.697591 -0.36711,-19.089542 -2.99335,-27.335341 -2.25912,-7.172684 -6.7491,-9.968347 -13.13113,-9.968347"
     id="path16"
     style="fill:#000000;fill-rule:evenodd;stroke:none"
     inkscape:connector-curvature="0" />
  <path
     d="m 589.88433,113.32351 -19.9932,0 c -2.00498,-0.14118 -3.6146,-1.7508 -3.6146,-3.72753 L 566.2483,6.5236386 c 0.16944,-1.8920141 1.83555,-3.3604355 3.86875,-3.3604355 l 18.60951,0 c 1.7508,0.084663 3.19099,1.2707569 3.58635,2.8803795 l 0,15.7573484 0.36709,0 c 5.61958,-14.0912519 13.49823,-20.81213363 27.36358,-20.81213363 9.00824,0 17.79057,3.24748743 23.43837,12.14276463 5.25245,8.245787 5.25245,22.111144 5.25245,32.079491 l 0,64.864987 c -0.2259,1.80728 -1.89201,3.24747 -3.86872,3.24747 l -20.13441,0 c -1.83555,-0.14118 -3.36046,-1.49665 -3.55811,-3.24747 l 0,-55.969688 c 0,-11.267358 1.29899,-27.758945 -12.56637,-27.758945 -4.88533,0 -9.37534,3.275741 -11.60622,8.245788 -2.82389,6.297311 -3.191,12.566368 -3.191,19.513157 l 0,55.489628 c -0.0282,2.06144 -1.77905,3.72753 -3.92521,3.72753"
     id="path18"
     style="fill:#000000;fill-rule:evenodd;stroke:none"
     inkscape:connector-curvature="0" />
  <path
     d="m 661.30075,105.13422 c 0,-5.19599 4.43351,-9.375347 9.88363,-9.375347 5.45013,0 9.88364,4.179357 9.88364,9.375347 0,5.16772 -4.43351,9.40358 -9.88364,9.40358 -5.45012,0 -9.88363,-4.23586 -9.88363,-9.40358"
     id="path20"
     style="fill:#000000;fill-rule:evenodd;stroke:none"
     inkscape:connector-curvature="0" />
  <path
     d="m 874.02507,113.35176 c -2.08968,-0.0848 -3.72754,-1.69434 -3.72754,-3.72754 l 0,-103.0440858 c 0.11296,-1.8355509 1.6661,-3.2757406 3.58635,-3.3886779 l 7.37037,0 c 2.03322,0 3.67107,1.4684106 3.84051,3.3886779 l 0,15.0231438 C 890.34722,9.6864096 900.11791,0.36754012 912.45835,0.36754012 l 0.76245,0 0.73421,0 c 13.10289,0 22.67591,9.65773488 26.23403,23.69251388 5.56307,-13.865346 16.01151,-23.69251388 29.79214,-23.69251388 l 0.70597,0 0.81893,0 c 9.74246,0 19.1178,6.26905728 23.97491,15.81383388 4.68771,9.121194 4.51823,21.263958 4.51823,31.458234 l -0.0282,61.984612 c 0.0282,1.97671 -1.58138,3.58633 -3.58634,3.72754 l -8.81057,0 c -1.92026,-0.0848 -3.4734,-1.44019 -3.72754,-3.21924 l 0,-62.492912 c 0,-7.37036 0.3671,-15.192576 -2.62623,-21.913458 -3.04982,-6.862072 -8.89529,-11.154399 -15.16434,-11.465011 -7.00327,0.338855 -13.44176,5.450125 -17.62114,12.340439 -5.42188,8.895266 -5.22421,16.915136 -5.22421,27.307098 l 0,56.280304 c -0.25415,1.69434 -1.75082,3.02157 -3.58635,3.16278 l -8.75409,0 c -2.08969,-0.0848 -3.75578,-1.69434 -3.75578,-3.72754 l -0.0565,-66.107506 c 0,-6.071382 -0.3671,-13.215846 -3.16276,-18.66597 -3.24748,-6.212562 -9.06472,-10.278993 -15.16434,-10.589605 -6.32553,0.367108 -12.70755,5.195975 -16.49157,10.815533 -4.88535,7.172685 -5.81723,16.03973 -5.81723,25.160935 l 0,59.386613 c 0,1.97671 -1.60962,3.58633 -3.61459,3.72754 l -8.78233,0"
     id="path22"
     style="fill:#000000;fill-rule:evenodd;stroke:none"
     inkscape:connector-curvature="0" />
  <path
     d="m 813.53715,115.49793 c -28.49314,0 -41.25717,-29.057937 -41.25717,-58.115859 0,-30.554597 14.99491,-57.01453088 43.68572,-57.01453088 l 0.73422,0 0.79069,0 c 27.90012,0 41.79371,28.18252588 41.79371,57.24044788 0,30.780493 -15.39025,57.889942 -44.2505,57.889942 l -0.73421,0 -0.76246,0 m 2.08969,-14.09126 c 9.37534,-0.31064 16.77395,-6.127875 21.15101,-15.813831 3.92522,-8.697623 4.68766,-18.665992 4.68766,-28.210768 0,-10.391962 -1.12955,-21.235716 -6.0149,-30.131015 -4.37705,-7.765721 -11.88862,-12.707526 -19.85201,-12.989917 -8.86705,0.310612 -16.8022,6.32552 -20.7839,15.587905 -3.58635,8.019892 -4.68767,18.665971 -4.68767,27.533027 0,9.968369 1.29899,21.489876 5.42188,30.159256 4.00994,8.217546 11.71918,13.554703 20.07793,13.865343"
     id="path24"
     style="fill:#000000;fill-rule:evenodd;stroke:none"
     inkscape:connector-curvature="0" />
  <path
     d="m 724.4996,100.95485 c 12.79227,-0.39536 19.51315,-10.646102 22.28057,-23.918443 0.56478,-1.666097 1.83554,-2.936854 3.69931,-2.936854 l 8.44346,-0.02822 c 2.00496,0.08466 3.8405,1.609623 3.67107,3.473416 -3.89699,22.619412 -17.53641,37.953202 -36.96484,37.953202 l -0.79069,0 -0.73422,0 c -28.29548,0 -40.49471,-28.408436 -40.49471,-57.240462 0,-28.606076 12.36868,-57.88992634 40.66414,-57.88992634 l 0.76245,0 0.76246,0 c 19.65434,0 33.66088,15.13610234 36.71069,37.75554534 0,1.694339 -1.58139,3.162749 -3.44516,3.360424 l -8.8388,-0.112958 c -1.86377,-0.25415 -3.07806,-1.835519 -3.36045,-3.614574 -2.11792,-12.622842 -9.37534,-22.675906 -21.46163,-23.071267 -19.23077,0.621257 -24.70911,24.285528 -24.70911,42.499674 0,17.536426 4.57472,43.149204 23.80546,43.770464"
     id="path26"
     style="fill:#000000;fill-rule:evenodd;stroke:none"
     inkscape:connector-curvature="0" />
  <path
     d="m 322.37634,64.102952 c 0,7.822195 0.19767,14.345402 -3.75579,21.292201 -3.191,5.647811 -8.27402,9.121205 -13.89357,9.121205 -7.70925,0 -12.22749,-5.873728 -12.22749,-14.543098 0,-17.112822 15.33377,-20.219108 29.87685,-20.219108 l 0,4.3488 m 20.24736,48.938168 c -1.32722,1.18604 -3.24749,1.27075 -4.74415,0.48007 -6.66441,-5.53484 -7.87868,-8.10458 -11.52151,-13.38527 -11.01321,11.23911 -18.83542,14.59954 -33.09611,14.59954 -16.91516,0 -30.04628,-10.42019 -30.04628,-31.288784 0,-16.293911 8.81058,-27.391836 21.40517,-32.813719 10.90024,-4.800646 26.12104,-5.6478 37.75552,-6.975031 l 0,-2.597987 c 0,-4.772405 0.36711,-10.420205 -2.45679,-14.543077 -2.42855,-3.699323 -7.11624,-5.224229 -11.26736,-5.224229 -7.65278,0 -14.45836,3.925219 -16.12447,12.058048 -0.33887,1.807308 -1.66609,3.586364 -3.50164,3.67108 l -19.45666,-2.0897 c -1.63787,-0.367087 -3.47339,-1.694339 -2.99333,-4.207589 4.46176,-23.607797 25.81045,-30.72403991022 44.89999,-30.72403991022 9.7707,0 22.53472,2.59798781022 30.24397,9.99660081022 9.77068,9.1211941 8.8388,21.2922011 8.8388,34.5363001 l 0,31.288801 c 0,9.403597 3.89698,13.52647 7.56805,18.609508 1.27077,1.807276 1.55316,3.981682 -0.0848,5.337155 -4.09465,3.416933 -11.38032,9.770703 -15.39025,13.328813 l -0.0282,-0.0566"
     id="path28"
     style="fill:#000000;fill-rule:evenodd;stroke:none"
     inkscape:connector-curvature="0" />
  <path
     d="m 59.160693,64.102952 c 0,7.822195 0.197653,14.345402 -3.755787,21.292201 -3.191024,5.647811 -8.245799,9.121205 -13.893599,9.121205 -7.709247,0 -12.199238,-5.873728 -12.199238,-14.543098 0,-17.112822 15.333767,-20.219108 29.848624,-20.219108 l 0,4.3488 m 20.247351,48.938168 c -1.327231,1.18604 -3.247499,1.27075 -4.744162,0.48007 -6.664387,-5.53484 -7.850438,-8.10458 -11.521507,-13.38527 -11.01321,11.23911 -18.807152,14.59954 -33.096101,14.59954 C 13.159348,114.73546 -2.141151e-6,104.31527 -2.141151e-6,83.446676 -2.141151e-6,67.152765 8.8388006,56.05484 21.405147,50.632957 c 10.900249,-4.800646 26.121068,-5.6478 37.755546,-6.975031 l 0,-2.597987 c 0,-4.772405 0.367108,-10.420205 -2.428555,-14.543077 -2.456809,-3.699323 -7.144465,-5.224229 -11.26737,-5.224229 -7.652751,0 -14.486602,3.925219 -16.152699,12.058048 -0.338876,1.807308 -1.666107,3.586364 -3.473394,3.67108 L 6.3537716,34.932061 C 4.7159066,34.564974 2.9086089,33.237722 3.3604333,30.724472 7.8504353,7.116675 29.170868,4.3208978e-4 48.260442,4.3208978e-4 c 9.770674,0 22.534695,2.59798781022 30.243942,9.99660081022 9.770705,9.1211941 8.838803,21.2922011 8.838803,34.5363001 l 0,31.288801 c 0,9.403597 3.896998,13.52647 7.568067,18.609508 1.298989,1.807276 1.58138,3.981682 -0.05648,5.337155 -4.094651,3.416933 -11.380305,9.770703 -15.390262,13.328813 l -0.05646,-0.0566"
     id="path30"
     style="fill:#000000;fill-rule:evenodd;stroke:none"
     inkscape:connector-curvature="0" />
</svg>
