<?xml version="1.0" encoding="utf-8"?>
<!-- Generator: Adobe Illustrator 22.1.0, SVG Export Plug-In . SVG Version: 6.00 Build 0)  -->
<svg version="1.1" id="Layer_1" xmlns="http://www.w3.org/2000/svg" xmlns:xlink="http://www.w3.org/1999/xlink" x="0px" y="0px"
	 viewBox="0 0 2423.5 829" style="enable-background:new 0 0 2423.5 829;" xml:space="preserve">
<path d="M563.7,440.5c-1-104.9,85.7-155.3,89.6-157.7c-48.8-71.3-124.6-81.1-151.6-82.2c-64.5-6.6-125.9,38-158.7,38
	s-83.3-37.1-136.8-36c-70.4,1-135.3,40.9-171.6,103.9C-38.4,433.1,16,621.1,87.3,724c34.9,50.3,76.3,107,130.9,104.9
	c52.6-2.1,72.4-34,135.8-34s81.3,34,136.8,33c56.5-1.1,92.3-51.4,126.9-101.9C657.5,667.5,674,611,675,608
	C673.7,607.5,564.9,565.8,563.7,440.5"/>
<path d="M459.4,132.4c29-35.1,48.5-83.8,43.2-132.4c-41.7,1.7-92.2,27.8-122.1,62.9c-26.8,31-50.3,80.6-43.9,128.2
	C382.9,194.7,430.5,167.4,459.4,132.4 M929.4,543.6l-48,145.5h-61.7l157.1-462.4h72l157.7,462.4h-63.8l-49.4-145.5H929.4z
	 M1081,496.9l-45.2-133.1c-10.3-30.2-17.1-57.6-24-84.4h-1.3c-6.9,27.4-14.4,55.5-23.3,83.7l-45.2,133.7L1081,496.9z M1253.3,465.4
	c0-42.5-1.3-76.9-2.8-108.4h54.2l2.8,57h1.3c24.7-40.5,63.8-64.5,118-64.5c80.3,0,140.6,67.9,140.6,168.8
	c0,119.4-72.7,178.3-150.9,178.3c-43.9,0-82.3-19.2-102.2-52.1h-1.3v180.4h-59.7V465.4z M1312.9,553.9c0,9,1.3,17.1,2.8,24.7
	c11,41.8,47.3,70.7,90.6,70.7c63.8,0,100.9-52.1,100.9-128.3c0-66.6-35-123.4-98.8-123.4c-41.1,0-79.5,29.5-91.3,74.8
	c-2.1,7.5-4.1,16.5-4.1,24.7L1312.9,553.9L1312.9,553.9z M1629.8,465.4c0-42.5-1.3-76.9-2.8-108.4h54.2l2.8,57h1.3
	c24.7-40.5,63.8-64.5,118-64.5c80.3,0,140.6,67.9,140.6,168.8c0,119.4-72.7,178.3-150.9,178.3c-43.9,0-82.3-19.2-102.2-52.1h-1.3
	v180.4h-59.7V465.4z M1689.5,553.9c0,9,1.3,17.1,2.8,24.7c11,41.8,47.3,70.7,90.6,70.7c63.8,0,100.9-52.1,100.9-128.3
	c0-66.6-35-123.4-98.8-123.4c-41.1,0-79.5,29.5-91.3,74.8c-2.1,7.5-4.1,16.5-4.1,24.7L1689.5,553.9L1689.5,553.9z M2006.4,202h60.4
	v487h-60.4V202z M2188.2,534c1.3,81.6,53.5,115.3,113.8,115.3c43.2,0,69.3-7.5,91.9-17.1l10.3,43.2c-21.2,9.6-57.6,20.6-110.4,20.6
	c-102.2,0-163.3-67.2-163.3-167.4s59-179.1,155.7-179.1c108.4,0,137.2,95.3,137.2,156.4c0,12.4-1.3,21.9-2.1,28.1H2188.2z
	 M2365.2,490.8c0.7-38.4-15.8-98.1-83.7-98.1c-61.1,0-87.8,56.3-92.6,98.1H2365.2z"/>
</svg>
