<svg width="180" height="50" xmlns="http://www.w3.org/2000/svg"><path d="M122.239233,32.8940437 C127.194849,32.8940437 130.138685,36.0312022 130.138685,41.2284699 C130.138685,46.4238251 127.275945,49.5604372 122.239233,49.5604372 C120.092932,49.5604372 118.408,48.5342077 117.271288,47.1325683 L117.028,49.3030601 L112.968,49.3030601 L112.968,26.0068852 L117.38389,26.0068852 L117.38389,35.2924044 C118.437315,33.8869399 119.995123,32.8940437 122.239233,32.8940437 Z M121.698685,45.7500546 C124.417041,45.7500546 125.709918,43.8180874 125.709918,41.2284699 C125.709918,38.6369399 124.438959,36.7454098 121.698685,36.7454098 C118.980055,36.7454098 117.38389,38.6369399 117.38389,41.2284699 C117.38389,43.8180874 118.957041,45.7500546 121.698685,45.7500546 Z M156.908849,32.8946721 C159.382274,32.8946721 161.877068,33.8397541 163.355151,35.9304645 C164.138438,37.0367486 164.864192,38.9594262 164.864192,40.7698087 L164.864192,42.4258197 L153.07789,42.4258197 C153.390767,44.5687158 154.58474,46.125 156.908849,46.125 C158.950767,46.125 159.708575,45.6553279 160.29926,43.9668033 L164.757068,44.0053279 C163.832959,48.1034153 160.585288,49.5610656 156.908849,49.5610656 C151.800082,49.5610656 148.829397,46.4244536 148.829397,41.2277322 C148.829397,36.0312842 152.078164,32.8946721 156.908849,32.8946721 Z M153.158164,39.5312842 L160.548301,39.5312842 C160.454055,37.7233607 158.904192,36.2353825 156.908849,36.2353825 C154.75926,36.2353825 153.567479,37.5446721 153.158164,39.5312842 Z M161.725397,15.4982514 C161.725397,20.6957923 158.114164,23.8315847 153.284301,23.8315847 C148.413616,23.8315847 144.844301,20.6957923 144.844301,15.4982514 C144.844301,10.3018033 148.454438,7.16628415 153.284301,7.16628415 C158.154712,7.16628415 161.725397,10.3018033 161.725397,15.4982514 Z M149.273068,15.4982514 C149.273068,18.0886885 150.543753,20.1889617 153.284301,20.1889617 C156.002384,20.1889617 157.295534,18.0886885 157.295534,15.4982514 C157.295534,12.9086339 156.025671,10.8086339 153.284301,10.8086339 C150.565945,10.8086339 149.273068,12.9086339 149.273068,15.4982514 Z M89.4230411,23.8891803 C86.2085205,23.8891803 83.5887945,22.3992896 83.5887945,18.866776 C83.5887945,15.3348087 86.723589,14.1088525 88.7559178,14.1088525 L93.9112603,14.1088525 L93.9112603,12.958306 L93.9055068,12.958306 C93.9055068,11.5298907 92.563589,10.6195082 90.9011233,10.6195082 L90.9000274,10.6195082 L90.9000274,10.6197814 L85.1624932,10.6197814 L85.1624932,7.16131148 L90.8978356,7.16131148 L90.9011233,7.16131148 C92.5915342,7.16131148 94.0879726,7.41540984 95.2715342,8.07169399 C97.1992055,9.13863388 98.3268767,11.0430055 98.3268767,12.958306 L98.3268767,17.7096721 L98.3268767,19.6913661 C98.3268767,20.0695082 98.6350959,20.3755191 99.0153699,20.3755191 L99.9989315,20.3755191 L99.9989315,23.5703279 L96.9597534,23.5703279 C95.6468767,23.5703279 94.884411,22.5244262 94.5482466,21.7440984 L94.5424932,21.7440984 C94.1657808,22.5165027 92.6370137,23.8891803 89.4230411,23.8891803 Z M90.8545479,16.9115847 C89.6964658,16.9115847 88.0570137,17.0438251 88.0570137,18.5990164 C88.0570137,20.1539344 89.1498904,20.4905464 90.5161918,20.4905464 C91.8822192,20.4905464 93.9112603,20.0738798 93.9112603,17.5091257 C93.9112603,17.2572131 93.8613973,17.0820765 93.8087945,16.9115847 L90.8545479,16.9115847 Z M102.826849,23.5704918 L102.826849,0.27295082 L107.241918,0.27295082 L107.241918,23.5704918 L102.826849,23.5704918 Z M141.589589,49.3040984 L141.589589,26.0071038 L146.004658,26.0071038 L146.004658,49.3040984 L141.589589,49.3040984 Z M133.160274,49.3040984 L133.160274,33.160929 L137.575342,33.160929 L137.575342,49.3040984 L133.160274,49.3040984 Z M69.5063562,15.0238251 L69.5063562,23.5702732 L65.0915616,23.5702732 L65.0915616,0.274371585 L69.5063562,0.274371585 L69.5063562,8.94486339 C70.7107397,7.84786885 72.3003288,7.16153005 74.0592329,7.16153005 C78.4589589,7.16153005 80.8332055,10.185847 80.8332055,13.917541 C80.8332055,14.0011475 80.8112877,14.0787432 80.8088219,14.1623497 L80.8332055,14.1623497 L80.8332055,23.5702732 L76.418411,23.5702732 L76.418411,15.024918 C76.418411,12.0978689 74.747726,11.0380328 72.9469041,11.0380328 C71.1455342,11.0380328 69.5099178,12.1560656 69.5099178,15.024918 L69.5063562,15.0238251 Z M172.979178,7.16196721 C177.37863,7.16196721 179.752877,10.1862842 179.752877,13.9171585 L179.752877,14.1614208 L179.752877,23.5709836 L175.338082,23.5709836 L175.338082,14.6556831 C175.338082,12.2447541 173.668767,11.0376503 171.867397,11.0376503 C170.066575,11.0376503 168.432877,12.056776 168.429589,14.6485792 L168.429589,23.5709836 L164.014795,23.5709836 L164.014795,7.42644809 L168.07726,7.42644809 L168.353973,9.12071038 C169.566575,7.92508197 171.184932,7.16196721 172.979178,7.16196721 Z M83.8415068,32.8938525 C87.8261644,32.8938525 89.9141096,35.6607923 89.9141096,39.6498634 L89.9141096,39.895765 L89.9141096,49.3039617 L85.7379452,49.3039617 L85.7379452,39.895765 C85.7379452,38.2326503 84.4590411,36.7703552 82.8426027,36.7703552 C81.2289041,36.7703552 79.6209589,38.1539617 79.6209589,39.895765 L79.6209589,49.3039617 L75.4434247,49.3039617 L75.4434247,39.895765 C75.4434247,38.2326503 74.1634247,36.7703552 72.5494521,36.7703552 C71.0541096,36.7703552 69.7023288,37.9602459 69.5067123,39.5151639 L69.5067123,49.3039617 L65.0919178,49.3039617 L65.0919178,33.1594262 L69.1535616,33.1594262 L69.4267123,34.8266393 C70.5113699,33.6487705 71.9519178,32.8938525 73.5472603,32.8938525 C76.3119178,32.8938525 77.9360274,34.0056011 78.8023288,35.6979508 C79.7478082,34.0266393 81.3765753,32.8938525 83.8415068,32.8938525 Z M101.424712,45.9186885 C104.143342,45.9186885 105.436219,43.8175956 105.436219,41.2279781 C105.436219,38.6372678 104.166356,36.5372678 101.424712,36.5372678 C98.7063562,36.5372678 97.4134795,38.6372678 97.4134795,41.2279781 C97.4134795,43.8175956 98.6830685,45.9186885 101.424712,45.9186885 Z M101.424712,32.894918 C106.295123,32.894918 109.866082,36.0315301 109.866082,41.2279781 C109.866082,46.4252459 106.254575,49.5613115 101.424712,49.5613115 C96.5532055,49.5613115 92.9847123,46.4252459 92.9847123,41.2279781 C92.9847123,36.0315301 96.5948493,32.894918 101.424712,32.894918 Z M125.996356,17.3160929 C125.181014,21.4166393 122.595534,23.8322131 118.148959,23.8322131 C113.277452,23.8322131 110.069781,20.6964208 110.069781,15.4988798 C110.069781,10.3024317 113.318274,7.16581967 118.148959,7.16581967 C122.798822,7.16581967 125.190603,9.58030055 125.997452,13.6816667 L121.446767,13.6816667 C120.861836,11.9945082 120.208411,10.8081694 118.148959,10.8081694 C115.429781,10.8081694 114.499644,12.9081694 114.499644,15.4988798 C114.499644,18.0895902 115.407863,20.1898634 118.148959,20.1898634 C120.191151,20.1898634 120.853616,19.0035246 121.444301,17.3160929 L125.996356,17.3160929 Z M137.244493,26.7204372 C136.692164,28.214153 134.806685,29.8144262 131.943671,29.8144262 L127.631616,29.8144262 L127.631616,26.0062295 L131.943671,26.0062295 C133.17189,26.0062295 133.454356,24.5403825 133.07874,23.5709836 L126.849151,7.42644809 L131.553534,7.42644809 L135.725041,19.7056831 L139.754904,7.42644809 L144.300932,7.42644809 L137.244493,26.7204372 Z M33.8879379,43.8284443 C34.7917724,46.5198749 35.947911,48.5109871 37.2434443,50 L0,50 L0,0 L50,0 L50,14.9051838 C45.472464,12.5572215 39.951881,12.6667856 35.0304159,15.4769804 L26.5011402,20.6850407 L29.0551278,22.0650471 C30.7016566,22.9557785 32.706987,22.8821781 34.28577,21.876028 L37.5459305,19.7970972 C41.8058289,17.3833407 46.7130758,17.8879491 50,20.9872482 L50,50 L49.9291876,50 C49.4641672,49.9263997 48.9969166,49.8583751 48.538866,49.7945324 C44.3840711,49.2191116 40.7966122,48.7223093 38.6198264,42.2125823 C38.599196,42.1518063 38.576614,42.0910302 38.5523594,42.0308118 L36.5233319,36.6323384 C35.5088181,33.9325442 33.5550636,31.6737944 31.0205914,30.2712061 L10.4902786,19.1207547 L10.3907509,19.3036404 C9.77880868,20.4274395 9.6419232,21.7221364 10.0043491,22.9493663 C10.3673326,24.1765962 11.1864152,25.1888797 12.3110506,25.7994279 L28.6151985,34.6546081 C30.1000296,35.4761998 31.2464106,36.8037938 31.843577,38.391498 L33.870653,43.7832805 L33.8879379,43.8284443 Z" fill="#303030" fill-rule="evenodd"/></svg>