<svg xmlns="http://www.w3.org/2000/svg" width="310" height="180" version="1.1"><ellipse cx="153.044" cy="66.605" fill="#FFF" rx="70.11" ry="60.76"/><path fill="#007DC5" d="M153.045,5.843c30.552,0,56.608,16.978,66.147,40.479c0.297,0.731-0.078,1.219-0.803,1.225	c-1.46,0.01-31.546,0.369-31.546,0.369h-67.592c0,0-30.09-0.359-31.549-0.369c-0.726-0.006-1.101-0.493-0.804-1.225	C96.438,22.82,122.499,5.843,153.045,5.843 M153.051,55.004c13.962,0,59.21,0.993,67.908,1.15c0.603,0.009,1.106-0.444,0.99-1.098	c-0.138-0.784-0.99-3.903-1.216-4.522c-0.196-0.55-0.493-0.8-1.047-0.784c-8.67,0.478-66.636,3.722-66.636,3.722	s-57.966-3.244-66.633-3.722c-0.557-0.016-0.854,0.234-1.047,0.784c-0.225,0.619-1.078,3.738-1.216,4.522	c-0.115,0.653,0.388,1.106,0.991,1.098C93.841,55.997,139.089,55.004,153.051,55.004 M153.045,63.418	c20.481-0.088,60.85,1.575,69.201,1.787c0.638,0.019,0.919-0.313,0.913-0.825c-0.007-0.975-0.297-4.01-0.397-4.647	c-0.118-0.725-0.622-1.106-1.307-1.088c-0.628,0.02-47.47,2.694-68.41,2.866c-20.941-0.172-67.78-2.847-68.411-2.866	c-0.688-0.019-1.191,0.363-1.307,1.088c-0.101,0.638-0.391,3.673-0.397,4.647c-0.003,0.513,0.275,0.844,0.91,0.825	C92.194,64.993,132.563,63.33,153.045,63.418 M153.045,127.368c30.552,0,56.608-16.978,66.147-40.475	c0.297-0.731-0.078-1.22-0.803-1.223c-1.46-0.009-31.546-0.372-31.546-0.372h-67.592c0,0-30.09,0.363-31.549,0.372	c-0.726,0.003-1.101,0.491-0.804,1.223C96.438,110.391,122.499,127.368,153.045,127.368 M153.051,78.211	c-13.962,0-59.21-0.997-67.904-1.15c-0.604-0.013-1.106,0.44-0.991,1.097c0.138,0.781,0.991,3.907,1.216,4.52	c0.193,0.55,0.49,0.804,1.047,0.788c8.667-0.481,66.633-3.723,66.633-3.723s57.966,3.241,66.636,3.723	c0.554,0.016,0.851-0.238,1.047-0.788c0.226-0.612,1.078-3.738,1.216-4.52c0.116-0.656-0.388-1.109-0.99-1.097	C212.261,77.214,167.013,78.211,153.051,78.211 M153.045,69.797c-20.481,0.084-60.851-1.575-69.205-1.791	c-0.635-0.016-0.913,0.318-0.91,0.825c0.007,0.979,0.297,4.01,0.397,4.647c0.115,0.731,0.619,1.112,1.307,1.088	c0.631-0.016,47.47-2.691,68.411-2.866c20.94,0.175,67.782,2.851,68.41,2.866c0.685,0.024,1.188-0.356,1.307-1.088	c0.101-0.638,0.391-3.669,0.397-4.647c0.006-0.507-0.275-0.841-0.913-0.825C213.895,68.222,173.526,69.881,153.045,69.797"/><path fill="#231F20" d="M45.536,170.566c-2.922,0-7.514-2.157-7.514-9.143c0-6.998,4.576-9.235,7.514-9.235	c2.941,0,7.514,2.231,7.514,9.235C53.05,168.422,48.459,170.566,45.536,170.566 M45.518,148.682c-6.767,0-12.249,5.7-12.249,12.742	c0,7.029,5.482,12.733,12.249,12.733s12.255-5.704,12.255-12.733C57.772,154.382,52.284,148.682,45.518,148.682z M233.917,170.566	c-2.926,0-7.52-2.157-7.52-9.143c0-6.998,4.575-9.235,7.52-9.235c2.938,0,7.511,2.231,7.511,9.235	C241.428,168.422,236.84,170.566,233.917,170.566 M233.892,148.682c-6.76,0-12.242,5.7-12.242,12.742	c0,7.029,5.482,12.733,12.242,12.733c6.767,0,12.252-5.704,12.252-12.733C246.144,154.382,240.658,148.682,233.892,148.682z M14.422,173.573v-24.308H10v24.308H14.422z M93.438,173.573v-24.308h-4.426v24.308H93.438z M190.454,173.573v-24.308h-4.426v24.308	H190.454z M113.645,152.522h1.932l0.219-3.147c-0.966-0.103-1.694-0.159-2.682-0.159c-9.401,0-15.456,5.025-15.456,12.208	c0,7.173,6.055,12.196,15.456,12.196c0.987,0,1.716-0.054,2.682-0.153l-0.219-3.15h-1.932c-6.688,0-11.077-3.467-11.077-8.921	C102.567,155.933,106.99,152.522,113.645,152.522 M78.995,163.774l-0.037,0.031c-3.229-5.957-10.134-12.202-14.344-14.537h-3.013	v24.305h4.163l-0.172-18.778l0.05-0.063c5.251,3.616,10.931,10.602,13.928,18.841h3.426v-24.305h-4.17L78.995,163.774 M213.717,163.774l-0.041,0.031c-3.225-5.957-10.129-12.202-14.336-14.537h-3.017v24.305h4.16l-0.169-18.778l0.047-0.063	c5.254,3.616,10.934,10.602,13.928,18.841h3.432v-24.305h-4.179L213.717,163.774 M117.16,173.573h4.188	c0,0,6.548-15.519,6.789-16.028c0.3,0.528,8.079,16.028,8.079,16.028h5.007l-13.018-24.805L117.16,173.573 M286.985,148.769	l-11.049,24.805h4.188c0,0,6.548-15.519,6.792-16.028c0.3,0.528,8.083,16.028,8.083,16.028H300L286.985,148.769 M22.292,159.148	c2.569-2.656,9.505-9.88,9.505-9.88H26.48l-10.104,10.64c4.854,3.197,8.907,7.539,11.417,13.665h4.639	C30.516,167.818,26.84,162.562,22.292,159.148 M254.411,149.269h-4.426v24.305h14.067v-3.366h-9.642V149.269 M278.721,149.269	h-16.768v3.366h6.169v20.938h4.426v-20.938h6.173V149.269 M168.078,161.205c-0.44,0.847-1.063,2.454-1.481,3.595h-0.063	c-0.409-1.113-1.031-2.729-1.476-3.572c-2.1-4.401-5.453-10.452-7.451-12.559c-1.169,2.147-5.804,20.838-6.772,24.904h4.432	l3.501-15.99l0.068-0.025c1.516,2.335,4.485,8.364,6.264,13.855h2.932c1.645-5.129,4.704-11.555,6.22-13.89l0.06,0.031l3.554,16.019	h4.435c-0.978-4.066-5.604-22.757-6.779-24.904C173.482,150.775,170.21,156.826,168.078,161.205"/></svg>