<?xml version="1.0" encoding="UTF-8" standalone="no"?>
<!-- Created with Inkscape (http://www.inkscape.org/) -->

<svg
   xmlns:dc="http://purl.org/dc/elements/1.1/"
   xmlns:cc="http://creativecommons.org/ns#"
   xmlns:rdf="http://www.w3.org/1999/02/22-rdf-syntax-ns#"
   xmlns:svg="http://www.w3.org/2000/svg"
   xmlns="http://www.w3.org/2000/svg"
   xmlns:sodipodi="http://sodipodi.sourceforge.net/DTD/sodipodi-0.dtd"
   xmlns:inkscape="http://www.inkscape.org/namespaces/inkscape"
   id="svg3399"
   version="1.1"
   inkscape:version="0.48.2 r9819"
   width="1000"
   height="464.29114"
   xml:space="preserve"
   sodipodi:docname="Netflix_Web_Logo.pdf"><metadata
     id="metadata3405"><rdf:RDF><cc:Work
         rdf:about=""><dc:format>image/svg+xml</dc:format><dc:type
           rdf:resource="http://purl.org/dc/dcmitype/StillImage" /><dc:title></dc:title></cc:Work></rdf:RDF></metadata><defs
     id="defs3403" /><sodipodi:namedview
     pagecolor="#ffffff"
     bordercolor="#666666"
     borderopacity="1"
     objecttolerance="10"
     gridtolerance="10"
     guidetolerance="10"
     inkscape:pageopacity="0"
     inkscape:pageshadow="2"
     inkscape:window-width="640"
     inkscape:window-height="455"
     id="namedview3401"
     showgrid="false"
     fit-margin-left="0.5"
     fit-margin-bottom="0.5"
     fit-margin-top="0.5"
     fit-margin-right="0.5"
     inkscape:zoom="0.20758122"
     inkscape:cx="653.0342"
     inkscape:cy="271.7702"
     inkscape:window-x="1101"
     inkscape:window-y="115"
     inkscape:window-maximized="0"
     inkscape:current-layer="g3407" /><g
     id="g3407"
     inkscape:groupmode="layer"
     inkscape:label="Netflix_Web_Logo"
     transform="matrix(1.25,0,0,-1.25,0.5,463.79113)"><g
       id="g3409"
       transform="scale(1.4438424,1.4438424)"><path
         d="m 0,0 553.523,0 0,256.699 L 0,256.699 0,0 z"
         style="fill:#b4131d;fill-opacity:1;fill-rule:nonzero;stroke:none"
         id="path3411"
         inkscape:connector-curvature="0" /><path
         d="m 95.4297,193.215 0,-2.195 c 0,0 -0.0078,-3.879 -0.0078,-7.247 -3.3711,3.735 -8.5078,9.442 -8.5078,9.442 l -23.4297,0 0.0078,-116.3517 13.5,-10.6602 14.0742,1.7617 c 0,0 0.0586,6.1446 0.1016,10.3165 4.6211,-3.8047 10.949,-9 10.949,-9 l 23.051,2.3476 0,109.6131 -12.508,11.949 -17.2303,0.024"
         style="fill:#211c1d;fill-opacity:1;fill-rule:nonzero;stroke:none"
         id="path3413"
         inkscape:connector-curvature="0" /><path
         d="m 237.359,193.23 -40.058,0 0,-15.5 c 0,0 10.59,-8.32 12.047,-9.464 0,-2.075 0,-79.8832 0,-79.8832 l 13.254,-10.6406 16.035,0.4062 c 0,0 0,85.9886 0,90.1246 2.894,0.024 11.847,0.09 11.847,0.09 l 0,11.285 -12.148,13.582 -0.977,0"
         style="fill:#211c1d;fill-opacity:1;fill-rule:nonzero;stroke:none"
         id="path3415"
         inkscape:connector-curvature="0" /><path
         d="m 399.258,193.215 -15.778,0 0,-106.9494 13.458,-12.4765 15.917,-1.3203 0,108.4802 -12.707,12.266 -0.89,0"
         style="fill:#211c1d;fill-opacity:1;fill-rule:nonzero;stroke:none"
         id="path3417"
         inkscape:connector-curvature="0" /><path
         d="m 477.641,127.832 c 0.148,0.789 9.543,52.273 9.543,52.273 l -12.813,13.102 -16.695,0 c 0,0 -0.86,-5.387 -1.414,-8.769 -3.309,3.585 -8.082,8.769 -8.082,8.769 l -17.207,0 c 0,0 9.812,-51.379 9.957,-52.121 -0.121,-0.75 -9.407,-58.4962 -9.407,-58.4962 l 18.239,-13.875 10.89,-1.2968 c 0,0 0,6.3086 0,9.7383 4.578,-3.5625 14.996,-11.6836 14.996,-11.6836 l 14.391,-1.9805 c 0,0 -12.242,63.5428 -12.398,64.3398"
         style="fill:#211c1d;fill-opacity:1;fill-rule:nonzero;stroke:none"
         id="path3419"
         inkscape:connector-curvature="0" /><path
         d="m 355.996,104.672 c 0,6.848 0,76.66 0,76.66 l -12.539,11.883 -16.848,0 0,-104.3439 13.368,-11.7031 30.496,-1.5157 -0.676,13.5196 c 0,0 -10.731,12.0511 -13.801,15.5001"
         style="fill:#211c1d;fill-opacity:1;fill-rule:nonzero;stroke:none"
         id="path3421"
         inkscape:connector-curvature="0" /><path
         d="m 173.098,170.078 c 3.039,0 13.093,0 13.093,0 l 0,11.192 -12.492,11.968 -0.879,0 -29.144,-0.023 0,-108.5353 13.172,-10.375 29.343,1.8398 0,12.0078 c 0,0 -12.058,13.3357 -13.093,14.4847 0,1.406 0,15.976 0,19.398 3.054,0 13.269,0 13.269,0 l 0,12.102 c 0,0 -12.109,12.113 -13.269,13.273 0,1.547 0,19.133 0,22.668"
         style="fill:#211c1d;fill-opacity:1;fill-rule:nonzero;stroke:none"
         id="path3423"
         inkscape:connector-curvature="0" /><path
         d="m 295.359,170.086 c 3.047,0 13.098,0 13.098,0 l 0,11.191 -12.492,11.961 -0.879,0 -29.148,-0.023 0,-103.6173 13.363,-11.0938 16.058,-0.1094 c 0,0 0,39.6795 0,43.6445 3.063,0 13.274,-0.004 13.274,-0.004 l 0,12.102 c 0,0 -12.11,12.113 -13.274,13.273 0,1.547 0,19.141 0,22.676"
         style="fill:#211c1d;fill-opacity:1;fill-rule:nonzero;stroke:none"
         id="path3425"
         inkscape:connector-curvature="0" /><path
         d="m 386.973,88.2617 c 0,0 4.066,-0.1992 11.047,-0.7148 l 0,102.5741 -11.047,-0.019 0,-101.8403"
         style="fill:#ffffff;fill-opacity:1;fill-rule:nonzero;stroke:none"
         id="path3427"
         inkscape:connector-curvature="0" /><path
         d="m 200.797,179.875 12.043,0 0,-89.2266 c 0,0 2.586,0.2032 11.027,0.3946 l 0.059,88.812 12.191,0 0,10.235 -35.32,0.012 0,-10.227"
         style="fill:#ffffff;fill-opacity:1;fill-rule:nonzero;stroke:none"
         id="path3429"
         inkscape:connector-curvature="0" /><path
         d="m 99.2656,101.949 -0.7812,-0.094 -13.461,88.235 -17.9296,0.019 0.0078,-110.7496 c 0,0 3.5625,0.5117 11.1328,1.3711 l -0.7813,84.1835 0.7774,0.07 12.8086,-82.9371 c 0,0 4.3789,0.5156 19.2659,1.9883 l 0,106.0668 -11.4378,0 0.3984,-88.153"
         style="fill:#ffffff;fill-opacity:1;fill-rule:nonzero;stroke:none"
         id="path3431"
         inkscape:connector-curvature="0" /><path
         d="m 472.914,190.121 -12.465,0 -6.258,-39.57 -0.738,0 -6.5,39.57 -12.23,0 9.55,-48.945 -9.234,-57.2112 11.891,-1.1328 6.117,47.168 0.75,-0.016 5.937,-48.4879 13.039,-1.4414 -9.32,59.7223 9.461,50.344"
         style="fill:#ffffff;fill-opacity:1;fill-rule:nonzero;stroke:none"
         id="path3433"
         inkscape:connector-curvature="0" /><path
         d="m 341.215,190.129 -11.106,-0.02 0,-99.1012 c 0,0 7.524,-0.2148 25.672,-1.0273 l 0,10.0585 c 0,0 -2.031,0.207 -14.566,0.645 l 0,89.445"
         style="fill:#ffffff;fill-opacity:1;fill-rule:nonzero;stroke:none"
         id="path3435"
         inkscape:connector-curvature="0" /><path
         d="m 147.168,87.0352 c 0,0 6.555,0.457 25.508,1.6718 l 0,10.125 -14.332,-0.9843 0,35.4803 14.332,0.012 0,10.316 -14.383,-0.008 0,36.219 14.437,0 0,10.242 -25.562,-0.007 0,-103.0668"
         style="fill:#ffffff;fill-opacity:1;fill-rule:nonzero;stroke:none"
         id="path3437"
         inkscape:connector-curvature="0" /><path
         d="m 269.434,91.8164 11.183,0 0,41.5116 14.328,0.012 0,10.32 -14.386,-0.012 0,36.219 14.437,0 0,10.242 -25.562,-0.007 0,-98.2856"
         style="fill:#ffffff;fill-opacity:1;fill-rule:nonzero;stroke:none"
         id="path3439"
         inkscape:connector-curvature="0" /></g></g></svg>