<svg width="273" height="191" xmlns="http://www.w3.org/2000/svg" xmlns:xlink="http://www.w3.org/1999/xlink"><defs><path id="a" d="M.06.5h272.104v190.44H.06z"/></defs><g fill="none" fill-rule="evenodd"><mask id="b" fill="#fff"><use xlink:href="#a"/></mask><path d="M113.258 21.277c8.777-9.144 20.998-14.818 34.513-14.818 17.965 0 33.641 10.018 41.986 24.892a58 58 0 0 1 23.733-5.046c32.404 0 58.674 26.499 58.674 59.189s-26.27 59.19-58.674 59.19c-3.957 0-7.821-.398-11.559-1.152-7.349 13.109-21.359 21.968-37.435 21.968a42.668 42.668 0 0 1-18.765-4.319C138.281 178.71 120.917 191 100.686 191c-21.073 0-39.033-13.332-45.922-32.03a45.117 45.117 0 0 1-9.338.972C20.337 159.942 0 139.392 0 114.043c0-16.99 9.136-31.823 22.715-39.758a52.55 52.55 0 0 1-4.349-20.994C18.366 24.136 42.033.5 71.227.5c17.14 0 32.373 8.148 42.031 20.777" fill="#00A1E0" mask="url(#b)"/><path d="M39.42 99.289c-.171.446.061.539.116.618.511.37 1.03.638 1.554.939 2.775 1.469 5.398 1.9 8.138 1.9 5.583 0 9.051-2.968 9.051-7.748v-.094c0-4.42-3.915-6.026-7.584-7.185l-.479-.155c-2.767-.898-5.155-1.675-5.155-3.498v-.093c0-1.561 1.396-2.708 3.559-2.708 2.405 0 5.255.799 7.093 1.814 0 0 .542.35.739-.173.107-.283 1.036-2.785 1.135-3.056.106-.293-.08-.514-.271-.628-2.099-1.279-4.998-2.149-7.999-2.149l-.557.002c-5.11 0-8.678 3.09-8.678 7.512v.095c0 4.66 3.936 6.175 7.623 7.228l.592.184c2.685.824 5.004 1.536 5.004 3.425v.094c0 1.73-1.507 3.015-3.934 3.015-.941 0-3.945-.016-7.191-2.069-.393-.229-.617-.394-.92-.579-.16-.097-.56-.272-.734.252l-1.102 3.057m81.73 0c-.171.446.061.539.118.618.509.37 1.029.638 1.552.939 2.776 1.469 5.399 1.9 8.138 1.9 5.583 0 9.052-2.968 9.052-7.748v-.094c0-4.42-3.914-6.026-7.584-7.185l-.479-.155c-2.767-.898-5.156-1.675-5.156-3.498v-.093c0-1.561 1.397-2.708 3.561-2.708 2.404 0 5.253.799 7.091 1.814 0 0 .542.35.74-.173.106-.283 1.036-2.785 1.134-3.056.107-.293-.08-.514-.27-.628-2.1-1.279-4.998-2.149-7.999-2.149l-.558.002c-5.109 0-8.677 3.09-8.677 7.512v.095c0 4.66 3.935 6.175 7.623 7.228l.591.184c2.686.824 5.005 1.536 5.005 3.425v.094c0 1.73-1.508 3.015-3.933 3.015-.943 0-3.947-.016-7.192-2.069-.393-.229-.623-.387-.921-.579-.101-.064-.572-.248-.733.252l-1.103 3.057m55.795-9.364c0 2.7-.504 4.832-1.494 6.335-.984 1.49-2.469 2.215-4.54 2.215s-3.548-.724-4.516-2.213c-.977-1.504-1.473-3.637-1.473-6.337 0-2.698.496-4.823 1.473-6.311.968-1.475 2.445-2.191 4.516-2.191s3.556.717 4.54 2.192c.992 1.487 1.494 3.612 1.494 6.31m4.662-5.007c-.459-1.549-1.172-2.912-2.121-4.049-.951-1.14-2.154-2.057-3.58-2.721-1.424-.665-3.104-1.002-4.995-1.002s-3.572.337-4.997 1.002c-1.424.664-2.628 1.581-3.579 2.723-.948 1.139-1.663 2.5-2.12 4.047-.455 1.537-.686 3.222-.686 5.007 0 1.786.231 3.472.686 5.007.457 1.546 1.17 2.908 2.121 4.049.951 1.142 2.158 2.051 3.58 2.699 1.426.648 3.106.978 4.995.978 1.89 0 3.568-.33 4.993-.978 1.424-.648 2.629-1.557 3.582-2.699.949-1.137 1.662-2.501 2.121-4.049.454-1.538.685-3.223.685-5.007 0-1.783-.231-3.469-.685-5.007m38.267 12.834c-.153-.453-.595-.282-.595-.282-.677.259-1.397.499-2.167.619-.776.122-1.635.183-2.554.183-2.253 0-4.048-.671-5.329-1.997-1.287-1.327-2.01-3.471-2.002-6.371.007-2.636.645-4.622 1.789-6.136 1.134-1.504 2.866-2.276 5.169-2.276 1.923 0 3.39.223 4.927.705 0 0 .365.159.54-.322.409-1.133.711-1.939 1.147-3.184.124-.355-.18-.505-.291-.548-.604-.236-2.031-.623-3.108-.786-1.007-.154-2.184-.234-3.497-.234-1.957 0-3.702.335-5.194.999-1.489.663-2.752 1.579-3.753 2.718-1.001 1.141-1.763 2.504-2.267 4.05-.505 1.538-.76 3.226-.76 5.016 0 3.865 1.043 6.988 3.1 9.276 2.064 2.296 5.16 3.462 9.201 3.462 2.387 0 4.836-.483 6.6-1.177 0 0 .336-.162.19-.554l-1.146-3.161m8.154-10.416c.223-1.501.634-2.748 1.275-3.722.967-1.475 2.439-2.288 4.51-2.288 2.072 0 3.437.814 4.421 2.289.65.975.934 2.274 1.045 3.723l-11.251-.002zm15.689-3.297c-.397-1.494-1.375-3.003-2.018-3.693-1.015-1.094-2.009-1.86-2.996-2.283a11.51 11.51 0 0 0-4.517-.917c-1.969 0-3.758.333-5.209 1.013-1.453.682-2.674 1.614-3.631 2.772-.959 1.157-1.678 2.534-2.137 4.096-.46 1.553-.692 3.246-.692 5.034 0 1.818.241 3.513.715 5.037.479 1.537 1.248 2.886 2.286 4.009 1.037 1.127 2.372 2.011 3.967 2.627 1.587.615 3.515.934 5.726.927 4.558-.015 6.955-1.031 7.945-1.578.175-.098.34-.267.134-.754l-1.032-2.888c-.158-.431-.594-.275-.594-.275-1.131.422-2.732 1.175-6.476 1.167-2.446-.004-4.258-.727-5.397-1.856-1.165-1.155-1.737-2.851-1.834-5.247l15.772.012s.416-.004.459-.41c.017-.168.541-3.24-.471-6.793zm-142.028 3.297c.223-1.501.635-2.748 1.275-3.722.968-1.475 2.438-2.288 4.511-2.288 2.072 0 3.437.814 4.421 2.289.649.975.933 2.274 1.044 3.723l-11.251-.002zm15.689-3.297c-.396-1.494-1.375-3.003-2.017-3.693-1.015-1.094-2.008-1.86-2.996-2.283a11.522 11.522 0 0 0-4.517-.917c-1.969 0-3.758.333-5.209 1.013-1.453.682-2.674 1.614-3.633 2.772-.957 1.157-1.676 2.534-2.137 4.096-.459 1.553-.69 3.246-.69 5.034 0 1.818.239 3.513.716 5.037.478 1.537 1.248 2.886 2.284 4.009 1.038 1.127 2.372 2.011 3.967 2.627 1.588.615 3.514.934 5.727.927 4.557-.015 6.955-1.031 7.945-1.578.174-.098.34-.267.133-.754l-1.031-2.888c-.159-.431-.595-.275-.595-.275-1.13.422-2.731 1.175-6.476 1.167-2.445-.004-4.258-.727-5.397-1.856-1.164-1.155-1.737-2.851-1.834-5.247l15.773.012s.416-.004.459-.41c.017-.168.541-3.24-.472-6.793zM67.592 97.666c-.619-.494-.705-.615-.91-.936-.313-.483-.473-1.171-.473-2.052 0-1.385.46-2.383 1.408-3.053-.01.002 1.36-1.182 4.575-1.14a31.98 31.98 0 0 1 4.283.365v7.17h.002s-2.005.431-4.262.567c-3.208.193-4.633-.924-4.623-.921zm6.277-11.086c-.64-.047-1.469-.07-2.463-.07-1.351 0-2.658.168-3.885.498-1.232.332-2.34.846-3.293 1.527a7.633 7.633 0 0 0-2.289 2.602c-.559 1.041-.844 2.264-.844 3.635 0 1.399.243 2.611.723 3.601a6.543 6.543 0 0 0 2.057 2.47c.877.638 1.959 1.106 3.214 1.392 1.239.283 2.643.426 4.177.426 1.62 0 3.231-.136 4.792-.399a95.06 95.06 0 0 0 3.973-.772c.526-.121 1.106-.28 1.106-.28.39-.099.36-.516.36-.516l-.009-14.426c0-3.164-.844-5.508-2.507-6.964-1.655-1.449-4.092-2.181-7.245-2.181-1.184 0-3.086.16-4.228.389 0 0-3.444.668-4.862 1.779 0 0-.312.192-.142.627l1.117 3c.139.389.518.256.518.256s.119-.047.259-.13c3.034-1.65 6.873-1.601 6.873-1.601 1.704 0 3.017.345 3.899 1.02.861.661 1.298 1.656 1.298 3.759v.667c-1.353-.196-2.599-.309-2.599-.309zm127.235-8.127a.428.428 0 0 0-.237-.568c-.269-.102-1.61-.385-2.644-.449-1.983-.124-3.082.21-4.068.654-.978.441-2.061 1.154-2.665 1.967l-.002-1.924c0-.264-.187-.477-.453-.477h-4.044c-.262 0-.452.213-.452.477v23.532a.48.48 0 0 0 .479.479h4.145a.479.479 0 0 0 .478-.479V89.91c0-1.579.174-3.152.521-4.141.342-.979.807-1.759 1.383-2.32a4.786 4.786 0 0 1 1.948-1.172 7.681 7.681 0 0 1 2.116-.298c.825 0 1.733.212 1.733.212.304.034.473-.152.576-.426.271-.721 1.039-2.882 1.186-3.312" fill="#FFFFFE"/><path d="M162.201 67.548a13.258 13.258 0 0 0-1.559-.37 12.217 12.217 0 0 0-2.144-.166c-2.853 0-5.102.806-6.681 2.398-1.568 1.58-2.635 3.987-3.17 7.154l-.193 1.069h-3.581s-.437-.018-.529.459l-.588 3.28c-.041.314.094.51.514.508h3.486l-3.537 19.743c-.277 1.59-.594 2.898-.945 3.889-.346.978-.684 1.711-1.1 2.243-.403.515-.785.894-1.444 1.115-.544.183-1.17.267-1.856.267-.382 0-.89-.064-1.265-.139-.375-.074-.57-.158-.851-.276 0 0-.409-.156-.57.254-.131.335-1.06 2.89-1.17 3.206-.112.312.045.558.243.629.464.166.809.272 1.441.421.878.207 1.618.22 2.311.22 1.452 0 2.775-.204 3.872-.6 1.104-.399 2.065-1.094 2.915-2.035.919-1.015 1.497-2.078 2.05-3.528.547-1.437 1.013-3.221 1.386-5.3l3.554-20.109h5.196s.438.016.529-.459l.588-3.28c.041-.314-.093-.51-.515-.508h-5.043c.025-.114.254-1.888.833-3.558.247-.713.712-1.288 1.106-1.683a3.273 3.273 0 0 1 1.321-.822 5.48 5.48 0 0 1 1.693-.244c.475 0 .941.057 1.296.131.489.104.679.159.807.197.514.157.583.005.684-.244l1.206-3.312c.124-.356-.178-.506-.29-.55m-70.474 34.117c0 .264-.188.479-.452.479h-4.183c-.265 0-.453-.215-.453-.479V67.997c0-.263.188-.476.453-.476h4.183c.264 0 .452.213.452.476v33.668" fill="#FFFFFE"/></g></svg>