<svg xmlns="http://www.w3.org/2000/svg" width="1740" height="462"><g><title>background</title><rect id="canvas_background" width="1742" height="464" x="-1" y="-1" fill="none"/></g><g><title>Simpplr</title><path id="svg_1" fill="#1abc9c" d="m207.545444,156.909091l0,66c0,2 -2,3 -3,2c-21,-13 -48,-25 -72,-30c-8,-1 -37,-6 -37,8l0,1c0,11 33,18 42,21c40,11 82,27 82,76l0,1c0,67 -60,86 -117,82c-31,-3 -60,-12 -86,-28c-1,-1 -1,-1 -1,-2l0,-67c0,-2 2,-3 3,-2c22,14 48,27 74,33c9,2 47,10 47,-7l0,-1c0,-10 -27,-16 -33,-18c-43,-12 -91,-24 -91,-79l0,-1c0,-62 55,-84 109,-81c28,2 57,10 82,24c0,0 1,1 1,2zm1333,145l0,75c0,1 -1,2 -2,2l-84,0c-2,0 -2,-1 -2,-2l0,-221c0,-1 0,-2 1,-2l84,-18c1,0 3,1 3,2l0,39c16,-34 37,-44 73,-45c1,0 2,1 2,2l0,88c0,1 -1,2 -2,2c-54,0 -73,26 -73,78zm-118,77l-84,0c-1,0 -2,-1 -2,-2l0,-305c0,-1 1,-2 2,-2l83,-18c1,0 3,1 3,2l0,323c0,1 -1,2 -2,2zm-521,-69c29,0 47,-25 47,-52l0,-1c0,-28 -18,-53 -47,-53c-29,0 -47,25 -47,53l0,1c0,27 18,52 47,52zm-45,43l0,0l0,77c0,1 -1,1 -2,2l-84,18c-1,0 -2,-1 -2,-2l0,-310c0,-1 0,-2 2,-2l84,0c1,0 2,1 2,2l0,26c19,-22 40,-34 70,-34c70,0 108,62 108,126l0,1c0,64 -37,127 -107,127c-29,0 -52,-10 -71,-31zm328,-43c29,0 47,-25 47,-52l0,-1c0,-28 -18,-53 -47,-53c-29,0 -47,25 -47,53l0,1c0,27 18,52 47,52zm-45,43l0,0l0,77c0,1 -1,1 -2,2l-84,18c-1,0 -2,-1 -2,-2l0,-310c0,-1 1,-2 2,-2l84,0c1,0 2,1 2,2l0,26c19,-22 40,-34 70,-34c70,0 109,62 109,126l0,1c0,64 -38,127 -108,127c-29,0 -52,-10 -71,-31zm-699,26l-84,0c-1,0 -2,-1 -2,-2l0,-221c0,-1 1,-2 1,-2l84,-18c2,0 3,0 3,2l0,27c18,-22 40,-35 69,-35c29,0 55,12 70,38c21,-24 46,-38 79,-38c56,0 84,37 84,90l0,157c0,1 -1,2 -2,2l-84,0c-1,0 -2,-1 -2,-2l0,-130c0,-20 -8,-38 -31,-38c-22,0 -32,17 -32,38l0,130c0,1 -1,2 -2,2l-84,0c-1,0 -2,-1 -2,-2l0,-130c0,-20 -8,-38 -31,-38c-22,0 -32,18 -32,38l0,130c0,1 -1,2 -2,2zm-156,-270c-29,0 -51,-21 -51,-50l0,-1c0,-29 22,-51 51,-51c29,0 52,22 52,51l0,1c0,29 -23,50 -52,50zm44,29l0,0l0,239c0,1 -1,2 -2,2l-83,0c-1,0 -2,-1 -2,-2l0,-221c0,-1 0,-2 1,-2l84,-18c1,-1 2,0 2,2zm1334,241c-29,0 -51,-22 -51,-51l0,0c0,-30 22,-51 51,-51c29,0 52,22 52,51l0,0c0,29 -23,51 -52,51z"/></g></svg>