<svg fill="none" height="196" viewBox="0 0 139 196" width="139" xmlns="http://www.w3.org/2000/svg"><g fill="#ec4815"><path d="m83.0307 64.7482c7.0402-5.8588 10.1597-40.4826 13.2072-52.9283 3.0476-12.445783 15.6511-11.81454602 15.6511-11.81454602s-3.272 5.72962602-1.937 10.00534602c1.335 4.2757 10.478 8.0977 10.478 8.0977l-1.972 5.2308s-4.118-.53-6.569 4.4018c-2.45 4.9317 3.07 53.2625 3.07 53.2625s-16.2219 29.7285-16.2219 42.0685 5.8049 22.682 5.8049 22.682h-8.1458s-11.9503-14.309-14.401-21.46c-2.4508-7.151-1.4709-14.302-1.4709-14.302s-12.9893-.739-24.5076 0c-11.5182.74-19.1996 10.702-20.586 16.275s-1.9606 19.487-1.9606 19.487h-6.441c-3.9204-12.173-7.034-16.535-5.3449-22.682 4.6787-17.025 3.7597-26.6812 2.6764-30.9821s-8.4179-8.0546-8.4179-8.0546c3.5929-7.3649 7.2603-10.9041 23.0359-11.2732 15.7756-.3692 37.0119-2.1552 44.0521-8.0139z"/><path d="m40.8531 122.359s1.6644 15.498 10.5068 23.395h7.5777c-7.5777-8.637-8.4041-31.151-8.4041-31.151-3.8542 1.263-8.684 5.453-9.6804 7.756z"/><path d="m0 159.718v7.723h10.1809v28.559h10.2323v-28.559h10.1809v-7.723z"/><path d="m61.5707 196v-7.723h-8.1242v-20.836h8.1242v-7.723h-26.4807v7.723h8.1242v20.836h-8.1242v7.723z"/><path d="m90.0723 180.45c-.4114-1.555-1.3883-3.731-2.5195-5.494l-9.1011-15.238h-9.4097v36.282h9.204v-13.424c0-2.281-.1028-4.665-.3085-6.635h.9255c.7199 2.021 1.594 3.836 2.4681 5.235l9.1011 14.824h9.5125v-36.282h-9.204v13.683c0 2.385.1029 4.872.2571 7.049z"/><path d="m139 196v-21.718l-11.878-14.875h-6.53l-11.929 14.875v21.718h9.821v-7.205h10.695v7.205zm-9.41-19.541v5.028h-11.517v-5.028l5.296-7.152h.925z"/></g></svg>