<?xml version="1.0" encoding="UTF-8" standalone="no"?>
<svg
   xmlns:dc="http://purl.org/dc/elements/1.1/"
   xmlns:cc="http://creativecommons.org/ns#"
   xmlns:rdf="http://www.w3.org/1999/02/22-rdf-syntax-ns#"
   xmlns:svg="http://www.w3.org/2000/svg"
   xmlns="http://www.w3.org/2000/svg"
   version="1.1"
   id="svg9080"
   viewBox="0 0 300 102.536"
   height="102.536"
   width="300">
  <defs
     id="defs9082" />
  <metadata
     id="metadata9085">
    <rdf:RDF>
      <cc:Work
         rdf:about="">
        <dc:format>image/svg+xml</dc:format>
        <dc:type
           rdf:resource="http://purl.org/dc/dcmitype/StillImage" />
        <dc:title></dc:title>
      </cc:Work>
    </rdf:RDF>
  </metadata>
  <g
     transform="translate(-214.79085,-504.8117)"
     id="layer1">
    <g
       transform="matrix(3.7307125,0,0,-3.7307125,316.19477,556.0159)"
       id="g8981">
      <path
         id="path8983"
         style="fill:#ffffff;fill-opacity:1;fill-rule:nonzero;stroke:none"
         d="m 0,0 c 0,-7.432 -6.025,-13.456 -13.456,-13.456 -7.432,0 -13.456,6.024 -13.456,13.456 0,7.432 6.024,13.457 13.456,13.457 C -6.025,13.457 0,7.432 0,0" />
    </g>
    <g
       transform="matrix(3.7307125,0,0,-3.7307125,331.37241,529.48233)"
       id="g8985">
      <path
         id="path8987"
         style="fill:#231f20;fill-opacity:1;fill-rule:nonzero;stroke:none"
         d="m 0,0 7.33,0 0,-1.504 -2.696,0 0,-7.548 -1.94,0 0,7.548 L 0,-1.504 0,0 Z" />
    </g>
    <g
       transform="matrix(3.7307125,0,0,-3.7307125,372.93926,535.09219)"
       id="g8989">
      <path
         id="path8991"
         style="fill:#231f20;fill-opacity:1;fill-rule:nonzero;stroke:none"
         d="m 0,0 2.397,0 c 0.848,-0.013 1.35,-0.349 1.35,-1.145 0,-0.799 -0.502,-1.224 -1.35,-1.235 L 0,-2.38 0,0 Z m 0,-3.955 2.051,0 c 0,0 1.271,-2.788 1.434,-3.593 l 2.39,0 -1.836,3.722 c 1.294,0.334 1.629,1.877 1.629,3.049 0,1.837 -2.049,2.338 -3.767,2.281 l -3.843,0 0,-9.052 1.942,0 0,3.593 z" />
    </g>
    <g
       transform="matrix(3.7307125,0,0,-3.7307125,403.83816,529.48233)"
       id="g8993">
      <path
         id="path8995"
         style="fill:#231f20;fill-opacity:1;fill-rule:nonzero;stroke:none"
         d="m 0,0 6.492,0 0,-1.504 -4.55,0 0,-2.128 4.186,0 0,-1.504 -4.186,0 0,-2.412 4.686,0 0,-1.504 L 0,-9.052 0,0 Z" />
    </g>
    <g
       transform="matrix(3.7307125,0,0,-3.7307125,457.68875,563.25199)"
       id="g8997">
      <path
         id="path8999"
         style="fill:#231f20;fill-opacity:1;fill-rule:nonzero;stroke:none"
         d="m 0,0 -3.324,6.019 -0.027,-0.025 0,-5.994 -1.815,0 0,9.052 2.407,0 3.305,-5.915 0.025,0.024 0,5.891 1.816,0 L 2.387,0 0,0 Z" />
    </g>
    <g
       transform="matrix(3.7307125,0,0,-3.7307125,484.36001,535.35408)"
       id="g9001">
      <path
         id="path9003"
         style="fill:#231f20;fill-opacity:1;fill-rule:nonzero;stroke:none"
         d="M 0,0 1.004,0 C 3.309,0.024 3.648,-1.51 3.648,-2.951 3.648,-4.394 3.309,-6 1.004,-5.974 L 0,-5.974 0,0 Z m -1.942,-7.478 3.082,0 c 2.821,-0.025 4.576,1.378 4.576,4.527 0,3.146 -1.755,4.55 -4.576,4.525 l -3.082,0 0,-9.052 z" />
    </g>
    <g
       transform="matrix(3.7307125,0,0,-3.7307125,354.00217,591.00437)"
       id="g9005">
      <path
         id="path9007"
         style="fill:#231f20;fill-opacity:1;fill-rule:nonzero;stroke:none"
         d="m 0,0 -0.939,0 0,3.957 L -1.928,0 -2.903,0 -3.892,3.957 -3.907,0 l -0.94,0 0,5.024 1.516,0 0.904,-3.423 0.906,3.423 L 0,5.024 0,0 Z" />
    </g>
    <path
       id="path9009"
       style="fill:#231f20;fill-opacity:1;fill-rule:nonzero;stroke:none"
       d="m 382.55743,591.00402 -3.77548,0 0,-18.7431 3.77548,0 0,18.7431 z" />
    <g
       transform="matrix(3.7307125,0,0,-3.7307125,457.0411,578.9094)"
       id="g9011">
      <path
         id="path9013"
         style="fill:#231f20;fill-opacity:1;fill-rule:nonzero;stroke:none"
         d="M 0,0 C -0.063,-0.136 -0.171,-0.229 -0.324,-0.281 -0.405,-0.31 -0.501,-0.325 -0.613,-0.33 -0.729,-0.34 -0.899,-0.343 -1.117,-0.343 l -0.119,0 -0.751,0 0,1.275 0.793,0 c 0.364,0 0.598,-0.004 0.701,-0.013 C -0.387,0.91 -0.289,0.877 -0.2,0.821 -0.104,0.764 -0.039,0.695 0,0.61 0.04,0.521 0.06,0.42 0.06,0.309 0.06,0.192 0.04,0.089 0,0 m 0.089,-1.153 0.313,0.093 c 0.244,0.098 0.434,0.279 0.565,0.498 0.138,0.225 0.171,0.613 0.171,0.893 0,0.267 -0.098,0.555 -0.227,0.784 C 0.76,1.377 0.552,1.557 0.286,1.656 0.16,1.699 0.043,1.726 -0.065,1.741 -0.258,1.768 -0.525,1.782 -0.866,1.782 l -2.133,0 0,-5.024 1.012,0 0,1.98 0.965,0.011 1.071,-1.991 1.215,0 -1.175,2.089 z" />
    </g>
    <g
       transform="matrix(3.7307125,0,0,-3.7307125,494.54112,586.86627)"
       id="g9015">
      <path
         id="path9017"
         style="fill:#231f20;fill-opacity:1;fill-rule:nonzero;stroke:none"
         d="m 0,0 c -0.238,-0.215 -0.535,-0.323 -0.891,-0.323 -0.284,0 -0.529,0.068 -0.735,0.204 -0.164,0.107 -0.298,0.249 -0.402,0.427 -0.078,0.136 -0.135,0.274 -0.173,0.415 -0.052,0.19 -0.078,0.417 -0.078,0.679 0,0.469 0.09,0.85 0.266,1.145 0.235,0.386 0.609,0.581 1.122,0.581 0.543,0 0.929,-0.214 1.159,-0.645 C 0.417,2.203 0.493,1.848 0.493,1.416 0.493,0.771 0.329,0.298 0,0 M 0.937,3.248 C 0.504,3.75 -0.107,3.999 -0.896,3.999 -1.672,3.999 -2.272,3.764 -2.693,3.297 -3.114,2.829 -3.325,2.188 -3.325,1.375 c 0,-0.693 0.171,-1.264 0.514,-1.719 0.423,-0.566 1.067,-0.849 1.928,-0.849 0.825,0 1.449,0.267 1.874,0.799 0.365,0.459 0.549,1.056 0.549,1.789 0,0.768 -0.202,1.386 -0.603,1.853" />
    </g>
    <g
       transform="matrix(3.7307125,0,0,-3.7307125,419.22212,578.41361)"
       id="g9019">
      <path
         id="path9021"
         style="fill:#231f20;fill-opacity:1;fill-rule:nonzero;stroke:none"
         d="m 0,0 c -0.082,0.299 -0.243,0.862 -1.104,0.862 -0.501,0 -1.236,-0.334 -1.236,-1.746 0,-0.898 0.353,-1.703 1.236,-1.703 0.577,0 0.979,0.327 1.104,0.938 l 1.042,0 c -0.207,-1.084 -0.916,-1.837 -2.166,-1.837 -1.327,0 -2.278,0.891 -2.278,2.615 0,1.747 1.006,2.632 2.291,2.632 C 0.382,1.761 0.988,0.737 1.042,0 L 0,0 Z" />
    </g>
    <g
       transform="matrix(3.7307125,0,0,-3.7307125,507.16322,565.38671)"
       id="g9023">
      <path
         id="path9025"
         style="fill:#231f20;fill-opacity:1;fill-rule:nonzero;stroke:none"
         d="m 0,0 -0.541,0 0,-1.439 -0.216,0 0,1.439 -0.537,0 0,0.194 L 0,0.194 0,0 Z" />
    </g>
    <g
       transform="matrix(3.7307125,0,0,-3.7307125,513.79085,570.75595)"
       id="g9027">
      <path
         id="path9029"
         style="fill:#231f20;fill-opacity:1;fill-rule:nonzero;stroke:none"
         d="m 0,0 -0.205,0 0,1.367 L -0.68,0 -0.874,0 -1.341,1.39 -1.347,0 l -0.208,0 0,1.633 0.326,0 0.385,-1.156 0.043,-0.135 0.029,-0.107 0.094,0.262 0.391,1.136 L 0,1.633 0,0 Z" />
    </g>
    <g
       transform="matrix(3.7307125,0,0,-3.7307125,224.93856,565.73253)"
       id="g9031">
      <path
         id="path9033"
         style="fill:#d71920;fill-opacity:1;fill-rule:nonzero;stroke:none"
         d="M 0,0 0.018,0.046 0.071,0.19 0.123,0.32 0.146,0.38 c 0.251,0.619 0.567,1.256 0.95,1.901 0.05,0.107 0.102,0.212 0.154,0.318 L -0.362,2.595 0.029,3.459 C 1.361,3.822 3.58,4.564 5.698,6.618 l 0.063,0.004 1.115,0 L 5.434,3.532 7.75,3.539 7.325,2.619 5.013,2.611 c 0,0 -1.085,-2.168 -1.453,-3.719 -0.285,-1.731 -0.005,-3.023 1.546,-3.507 0.958,-0.297 2.153,-0.229 3.441,0.136 2.997,0.933 6.201,2.994 8.545,5.721 3.859,4.483 3.934,9.07 0.171,10.241 -2.415,0.75 -5.82,-0.084 -8.971,-1.962 3.929,2.534 8.249,3.724 11.23,2.796 0.559,-0.174 1.043,-0.414 1.455,-0.71 -2.463,2.715 -6.019,4.419 -9.973,4.419 -7.43,0 -13.456,-6.025 -13.456,-13.456 0,-2.744 0.823,-5.295 2.232,-7.423 C -0.753,-3.538 -0.678,-1.851 0,0" />
    </g>
    <g
       transform="matrix(3.7307125,0,0,-3.7307125,308.55985,529.51367)"
       id="g9035">
      <path
         id="path9037"
         style="fill:#d71920;fill-opacity:1;fill-rule:nonzero;stroke:none"
         d="m 0,0 c 0.9,-2.445 -0.226,-6.094 -3.334,-9.706 -4.666,-5.426 -12.037,-8.707 -16.461,-7.33 -0.549,0.171 -1.026,0.406 -1.433,0.697 2.455,-2.62 5.945,-4.256 9.818,-4.256 7.433,0 13.458,6.024 13.458,13.456 C 2.048,-4.515 1.295,-2.069 0,0" />
    </g>
  </g>
</svg>
