<?xml version="1.0" encoding="utf-8"?>
<!-- Generator: Adobe Illustrator 15.0.3, SVG Export Plug-In . SVG Version: 6.00 Build 0)  -->
<!DOCTYPE svg PUBLIC "-//W3C//DTD SVG 1.1//EN" "http://www.w3.org/Graphics/SVG/1.1/DTD/svg11.dtd">
<svg version="1.1" xmlns="http://www.w3.org/2000/svg" xmlns:xlink="http://www.w3.org/1999/xlink" x="0px" y="0px" width="633px"
	 height="294.999px" viewBox="0 0 633 294.999" enable-background="new 0 0 633 294.999" xml:space="preserve">
<g id="Layer_4">
</g>
<g id="map">
</g>
<g id="guides">
</g>
<g id="images">
</g>
<g id="text">
</g>
<g id="key">
	<g>
		<g>
			<g>
				<path fill="#5289C3" d="M149.567,87.112c1.109-2.402,2.14-4.32,3.624-6.603c0.654-1.004,1.402-1.709,2.055-2.721
					c-0.317-0.095-0.774,0.166-0.977,0.306c-0.656,0.477-0.955,1.256-1.484,1.675c-1.245,0.981-1.208,1.877-1.863,2.327
					c-0.584,0.417-0.75,0.688-1.164,1.331c-0.27,0.427-0.473,0.776-0.758,1.615c-0.104,0.305-0.305,0.039-0.797,0.711
					c-0.633,0.869-0.921,1.807-1.185,2.866c-0.089,0.346-0.678,0.528-1.055,1.25c-0.507,0.966-0.843,1.87-1.06,3.281
					c-0.053,0.329-0.612,0.556-0.995,1.47c-0.268,0.641-0.461,0.78-0.699,1.994c-0.145,0.737-0.483,0.845-0.863,1.913
					c-0.288,0.821-0.303,1.605-0.405,2.677c-0.021,0.213-0.374,0.618-0.698,1.216c-0.536,0.997-0.52,1.668-0.74,2.702
					c-0.08,0.376-0.5,0.867-0.901,2.471c-0.356,1.421-0.03,2.357-0.148,3.063c-0.312,1.812-0.625,3.394-0.458,5.185
					c0.082,0.869,0.216,1.776,0.16,2.617c-0.169,2.639-0.31,4.811-0.296,7.801c0.007,1.632,0.136,3.86,0.382,5.716
					c0.27,2.048,0.661,3.649,0.661,3.649h6.679c0,0-0.262-3.858,0.085-7.926c0.207-2.437,0.785-5.016,1.31-6.831
					c0.67-2.31,1.083-3.51,2.345-6.561c0.028-0.072-0.009-0.354-0.345-0.078c-0.696,0.586-1.275,1.098-1.827,1.925
					c-0.837,1.271-1.351,2.318-2.036,3.617c-0.792,1.514-1.226,2.83-2.051,4.662c-0.046-1.321,0.171-2.586,0.437-3.809
					c0.275-1.244,0.492-2.235,0.883-3.309c0.701-1.898,1.375-3.479,2.491-5.246c0.651-1.016,1.473-1.93,2.313-2.695
					c1-0.914,1.932-1.727,2.98-2.618c-1.105-0.566-2.578,0.617-2.867,0.675c-1.554,0.303-2.187,1.748-2.664,1.942
					c-0.676,0.287-1.068,0.7-1.541,1.272c-0.367,0.43-0.475,1.099-0.854,1.333c-0.631,0.394-1.096,0.99-1.531,1.82
					c-0.18,0.343-0.672,1.961-1.211,1.762c0.924-5.504,2.87-10.666,5.985-15.262c1.983-2.911,4.132-5.412,7.299-7.645
					c0.42-0.3,0.503-0.437-0.084-0.421c-2.961,0.361-3.141,1.717-3.63,1.84c-0.462,0.121-1.033,0.672-1.402,1.027
					c-0.66,0.65-0.65,1.202-0.903,1.372c-0.539,0.375-0.942,0.767-1.314,1.421c-0.19,0.344-0.521,1.097-0.811,1.27
					c-0.758,0.438-1.494,1.083-1.865,1.774c-0.269,0.503-0.376,1.054-0.729,1.554c-0.38,0.535-0.909,0.935-1.367,1.322
					c0.347-2.351,1.456-5.14,2.218-7.54C146.922,93.062,148.166,90.146,149.567,87.112z"/>
				<path fill="#5289C3" d="M156.386,106.174c2.527-5.673,5.184-9.944,8.641-14.939c0.455-0.653,0.859-1.293,1.255-1.905
					c0.173-0.278,1.026-1.502,1.206-1.761c1.151-1.75,1.644-2.281,2.829-3.956c0.317-0.453,0.579-0.811,0.718-1.332
					c0.253-0.981-0.59-1.639-0.778-2.582c-0.199-0.957-0.093-2.006,0.352-2.813c0.272-0.505,0.544-0.703,0.826-1.382
					c0.535-1.312,0.349-4.138,0.967-4.215c-0.16,1.341-0.194,2.855,0.013,4.145c0.248,1.508,1.161,2.412,1.54,4.008
					c1.013-0.184,2.121-0.138,2.969-0.062c0.85,0.066,1.926-0.167,2.793-0.465c1.18-0.4,2.155-1.133,3.356-1.418
					c-1.02,0.98-2.462,1.354-3.673,2.098c-0.44,0.279-0.858,0.648-1.154,1.104c-0.491,0.759-0.869,1.479-1.634,1.813
					c-1.35,0.586-2.509,0.31-4.051,0.594c-2.285,2.36-4.442,5.567-6.427,8.94c-5.044,8.522-9.252,17.362-11.692,26.415
					c0.85-1.578,1.651-3.1,2.565-4.598c1.016-1.667,2.151-3.294,3.391-4.93c2.902-3.825,5.772-7.164,8.995-10.679
					c2.588-2.843,5.441-5.228,8.614-7.219c4.193-2.625,9.367-4.465,13.913-3.521c0.516,0.125,1.257,0.262,1.578,0.603
					c-5.694-0.795-10.802,1.195-14.605,4.246c-3.012,2.401-5.545,4.847-8.127,8.022c-1.327,1.527-2.527,3.208-3.711,4.833
					c-1.248,1.716-2.351,3.518-3.451,5.32c-3.688,6.098-6.483,12.551-8.54,19.237c-0.06,0.212-0.069,0.427-0.131,0.638
					c0.102-0.154,0.246-0.313,0.339-0.467c2.765-4.495,6.095-8.837,10.31-11.755c0.363-0.245,0.75-0.73,0.845-1.109
					c0.459-1.782-0.904-2.64,0.979-5.112c0.433-0.564,1.02-0.773,1.43-1.298c0.775-1.189,1.398-3.324,2.045-3.898
					c-0.327,1.391-1.124,2.855-1.293,4.29c-0.178,1.57,0.221,2.855,0.291,4.519c1.115,0.156,1.976,0.626,2.852,0.896
					c1.355,0.419,2.172,0.313,3.513,0.196c0.573-0.048,1.612-0.385,2.231-0.258c-1.301,0.715-3.053,0.581-4.382,1.257
					c-0.925,0.475-1.199,1.182-2.478,1.427c-1.142,0.224-2.104,0.105-2.848-0.275c-0.573-0.294-1.022-0.415-1.538-0.164
					c-1.383,0.663-2.328,1.6-3.445,2.725c-2.579,2.601-4.693,5.504-6.659,9.302c-0.519,1.02-0.989,2.018-1.435,3.044
					c-0.217,0.507-0.766,1.899-0.766,1.899h-6.745c0,0-0.021-1.95,0.044-2.658c0.13-1.42,0.318-2.467,0.598-3.905
					c0.39-2.067,0.771-3.942,1.312-5.946c0.52-1.95,1.082-3.78,1.751-5.656C153.277,113.562,154.764,109.813,156.386,106.174z"/>
				<path fill="#5289C3" d="M91.103,158.768c2.465-2.021,4.289-3.186,6.749-4.651c1-0.6,2.515-1.279,3.675-1.805
					c4.262-1.928,9.901-3.341,15.217-3.444c0.095,0,0.088,0.004,0.088,0.004h39.628c0,0-0.152-0.004,0.138-0.004
					c1.262,0,2.509,0.44,3.276,1.169c0.774,0.734,1.147,1.864,1.347,2.993c0.168,0.955,0.083,1.801-0.139,2.83
					c-0.174,0.814-0.301,1.289-0.75,1.977c-0.275,0.422-0.53,0.705-1.039,1.116c-0.52,0.416-1.26,0.555-2.105,0.561
					c-0.091,0.005-0.277,0.009-0.271,0.006c0.006-0.006-46.348-0.006-46.348-0.006s-0.287-0.001-0.43-0.001
					c-3.036-0.009-6.225,0.149-9.229,0.543c-2.296,0.306-4.601,0.666-6.817,1.248c-2.799,0.727-5.491,1.743-8.185,2.747
					C87.398,162.068,89.123,160.38,91.103,158.768z"/>
				<path fill="#5289C3" d="M104.858,143c2.44-1.754,5.395-3.203,8.012-4.203c1.33-0.501,3.09-1.061,4.497-1.409
					c1.692-0.426,3.64-0.754,5.225-0.798c0.479-0.012,0.075-0.004,0.075-0.004l33.981-0.004c0,0,0.731,0.041,0.98,0.089
					c0.637,0.138,1.155,0.397,1.37,0.539c0.524,0.336,1.191,1.05,1.538,1.612c0.88,1.451,1.034,3.018,0.753,4.654
					c-0.332,1.863-1.741,3.984-3.67,4.035c-0.333,0.007-1,0-1,0h-36.811c0,0-2.14,0.047-3.119,0.081
					c-1.812,0.066-3.819,0.272-5.397,0.512c-1.355,0.188-2.674,0.447-4.027,0.809c-4.54,1.229-8.484,3.531-12.604,5.31
					C97.437,149.374,101.195,145.656,104.858,143z"/>
				<path fill="#5289C3" d="M85.849,166.094c5.904-3.485,13.025-4.865,19.542-5.077c0.152-0.004,0.463-0.025,0.463-0.025
					l50.802,0.003c0,0,0.093,0,0.557-0.003c3.077-0.002,4.204,3.059,4.189,5.528c-0.013,0.808-0.146,1.646-0.374,2.195
					c-0.293,0.736-0.613,1.329-1.144,1.898c-0.189,0.215-0.868,0.687-1.168,0.765c-0.708,0.172-1.576,0.151-1.564,0.151
					c0.006,0-37.792,0.008-37.792,0c0,0-2.039-0.081-3.454-0.223c-1.021-0.099-1.792-0.202-2.855-0.398
					c-2.601-0.52-4.754-1.368-7.009-2.062c-1.506-0.474-3.082-0.819-4.734-1.059c-3.033-0.472-6.35-0.678-9.409-0.452
					c-3.898,0.295-7.362,1.062-11.065,2.23C81.453,168.59,84.06,167.153,85.849,166.094z"/>
				<path fill="#5289C3" d="M113.216,182.031c-1.739-0.613-3.436-1.4-4.951-2.41c-1.985-1.306-2.953-2.352-5.512-3.533
					c-2.192-1.006-3.938-2.012-6.991-3.122c-1.473-0.532-3.861-1.26-5.907-1.611c-2.927-0.499-5.747-0.709-5.747-0.709
					s0.597-0.38,0.956-0.492c2.987-0.912,5.623-1.354,8.685-1.575c2.688-0.208,5.157,0.054,7.853,0.478
					c1.108,0.174,2.545,0.516,3.796,0.872c4.05,1.158,8.661,2.987,12.754,2.997c0.227,0,0.197-0.007,0.197-0.007h37.772
					c0,0-0.288,0,0.12,0c1.142-0.003,3.277,0.364,4.138,1.888c0.994,1.747,1.304,3.832,0.469,5.916
					c-0.254,0.625-0.676,1.521-1.278,2.074c-0.534,0.473-1.396,0.783-1.89,0.783c-0.148,0.009-0.394,0-0.394,0h-33.025
					c0,0,0.121,0-0.184,0C120.704,183.579,116.451,183.168,113.216,182.031z"/>
				<path fill="#5289C3" d="M128.26,193.746c-0.932-0.957-2.219-2.43-3.387-3.823c-2.245-2.675-3.249-5.083-3.249-5.083h22.036
					c0,0,0.053,2.539-0.455,5.48c-0.479,2.741-1.484,5.619-2.561,7.706c-0.041,2.145,0.866,4.134,1.016,6.243
					c-1.809,1.111-3.758,2.218-5.379,3.778c-0.102,0.094-0.273,0.094-0.34-0.166c-0.867-3.263-1.328-6.162-2.039-9.38
					C131.894,196.946,130.01,195.561,128.26,193.746z"/>
				<path fill="#5289C3" d="M150.964,191.937c-0.621-1.147-1.085-2.672-1.806-3.573c-0.151,0.807,0.034,1.303-0.071,2.077
					c-0.102,0.641-0.634,0.375-0.736,0.08c-0.309-0.891-0.64-1.964-0.918-2.854c-0.472-1.502-0.625-2.821-0.625-2.821l3.669-0.005
					c0,0,0.142,0.042,0.2,0.394c0.182,0.918,0.138,1.828,0.386,2.893c0.332,1.381,0.744,2.634,1.253,3.922
					c0.438,1.128,1.004,2.268,1.47,3.391c0.06,0.153,0.093,0.435-0.016,0.583c-0.141,0.172-0.376,0.157-0.505,0
					C152.216,194.826,151.79,193.48,150.964,191.937z"/>
				<path fill="#5289C3" d="M156.639,194.556c-0.626-1.326-1.503-2.816-1.423-4.33c0.401,0.53,0.567,0.917,1.128,1.212
					c0.257,0.076,0.789,0.003,0.656-0.439c-0.248-0.825-0.626-1.538-0.987-2.677c-0.523-1.678-1.033-3.48-1.033-3.48l-3.742-0.002
					c0,0,0.208,1.521,1.061,3.855c0.745,2.051,1.9,4.41,3.165,6.625c1.022,1.824,1.964,3.407,3.13,4.746
					c0.398,0.453,1.381,0.049,0.958-0.548C158.442,197.951,157.41,196.216,156.639,194.556z"/>
				<path fill="#5289C3" d="M180.93,68.118c-0.812,0.352-1.532,0.813-1.936,1.592c-0.298,0.562-0.491,1.42,0.069,1.9
					c0.985,0.841,2.167-0.025,2.647-0.888c0.597-1.094,0.444-3.19,0.444-3.19S181.453,67.896,180.93,68.118z"/>
				<path fill="#5289C3" d="M181.784,73.36c0.361-0.67,1.13-1.396,1.986-1.916c0.961-0.589,1.959-1.161,2.653-1.572
					c0.695-0.417,0.826-0.716,0.826-0.716s-0.57,0.202-0.886,0.386c-1.71,1.024-3.581,2.18-4.337,2.519
					c-0.962,0.418-2.266,0.501-3.441,0.648c-0.192-1.481-0.575-2.096-0.563-3.417c0.01-0.63,0.156-1.448,0.27-2.02
					c0.36-1.905,0.436-2.864,0.436-2.864s-0.293,0.267-0.396,1.105c-0.121,0.757-0.205,1.036-0.379,1.934
					c-0.201,1.028-0.403,1.906-1.025,2.555c-0.887,0.917-1.712,2.561-1.024,3.813c0.401,0.73,1.065,0.627,1.276,0.814
					c0.213,0.19,0.341,0.639,0.977,0.854C179.521,75.936,181.072,74.712,181.784,73.36z"/>
				<path fill="#5289C3" d="M180.013,77.273c0.461-0.752,0.939-1.278,1.67-1.732c1.214-0.741,2.121-1.24,2.858-1.62
					c0.319-0.162,0.586-0.354,0.669-0.694c-0.332,0.124-1.578,0.711-2.83,1.447c-0.884,0.539-2.423,1.2-3.45,1.247
					c-0.412,0.017-0.714-0.081-1.042-0.09c-0.689-0.035-1.576,0.136-1.576,0.136s-0.218-0.973-0.517-1.681
					c-0.145-0.359-0.382-0.729-0.512-1.405c-0.085-0.447-0.111-1.129-0.075-1.531c0.099-1.219,0.431-2.408,0.37-3.642
					c-0.762,1.597-0.451,3.558-1.354,4.787c-0.38,0.519-0.681,0.926-0.977,1.583c-0.494,1.069-0.432,2.18,0.233,3.214
					c0.385,0.586,1.232,0.569,1.385,0.677c0.22,0.168,0.408,0.782,1.245,0.972C177.531,79.257,179.208,78.602,180.013,77.273z"/>
				<path fill="#5289C3" d="M180.411,108.426c0.328-0.668,0.545-1.544,0.967-2.17c-0.957,0.148-1.111,0.255-2.488,0.41
					c-0.304,0.022-0.93,0.337-1.133,0.54c-0.547,0.557-1.021,1.067-0.81,1.99c0.083,0.362,0.4,0.625,0.573,0.682
					C178.673,110.25,179.835,109.567,180.411,108.426z"/>
				<path fill="#5289C3" d="M181.578,110.25c1.307-0.306,2.81-0.942,3.414-0.743c-1.222,0.651-2.766,0.891-4.124,1.278
					c-1.035,0.294-1.776,1.074-2.699,1.787c-0.85,0.647-1.977,0.91-2.986,0.435c-0.341-0.163-0.669-0.714-0.731-1.002
					c-0.052-0.238-0.537-0.469-0.788-0.674c-0.253-0.213-0.37-0.733-0.378-0.934c-0.042-1.811,1.334-2.543,2.659-3.598
					c0.999-0.804,2.292-4.194,3.082-4.897c-0.137,1.094-1.559,3.16-2.179,4.765c-0.496,1.276-0.332,2.301-0.647,3.646
					c0.942,0.059,2.002,0.261,2.955,0.273C179.903,110.594,180.81,110.43,181.578,110.25z"/>
				<path fill="#5289C3" d="M180.201,113.035c-0.734,0.138-1.633,0.367-2.245,0.498c-2.128,0.45-3.14-0.593-4.843-0.567
					c0.15-1.951-0.527-2.821,0.027-4.078c0.501-1.121,0.959-2.306,1.384-3.258c0.348-0.762,0.45-1.401,0.45-1.401
					s-0.512,0.769-1.978,3.626c-0.512,1.001-1.425,1.215-2.242,2.159c-0.929,1.078-1.465,3.352,0.259,4.307
					c0.346,0.187,0.295,0.785,0.548,1.023c1.149,1.087,3.479,0.975,4.939-0.348c1.156-1.059,2.569-1.232,3.768-1.543
					c0.705-0.178,1.322-0.478,1.322-0.478S181.252,112.842,180.201,113.035z"/>
				<path fill="#5289C3" d="M139.675,98.323c0.555-2.255,1.238-4.539,1.411-6.921c0.25-3.562-0.514-7.266-2.797-9.962
					c0.226,1.161,0.523,2.146,0.678,3.365c0.186,1.475-0.021,3.117-0.403,4.601c-0.284,1.123-0.794,2.215-1.297,3.261
					c-0.588,1.231-1.479,2.575-2.358,3.681c-2.473,3.076-6.323,9.07-6.323,9.07s-0.321-0.022-0.515-0.022
					c-0.046-0.749,1.729-3.307,2.623-4.743c1.963-3.137,3.448-4.825,5.161-7.551c1.064-1.721,1.884-3.812,2.146-5.701
					c0.536-3.858-1.543-8.488-4.536-10.022c0.677,2.881,0.61,6.947-0.929,8.654c-2.903,3.234-4.625,5.662-6.701,9.807
					c-0.062,0.112-0.549-0.562-0.945-0.821c-0.45-0.298-0.199-1.186-0.362-1.785c-0.145-0.512-0.383-0.905-0.458-0.991
					c-0.612-0.753-1.207-0.797-1.335-1.025c-0.148-0.253-0.072-0.891-0.613-1.614c-0.264-0.36-0.95-0.628-1.223-0.97
					c-0.301-0.376-0.435-1.514-1.262-1.987c-0.394-0.22-0.576-0.905-0.955-1.236c-1.163-1.032-2.326-0.832-2.548-0.901
					c-0.296-0.079-0.879-0.824-1.921-0.997c-1.011-0.179-1.572,0.505-2.098,0.258c-1.326-0.614-2.592-0.664-4.003,0.906
					c-0.417,0.462-1.148,0.025-2.06,0.724c-0.8,0.612-0.816,1.175-1.222,1.248c-0.764,0.146-1.334,0.759-1.629,1.424
					c-0.15,0.347-0.268,1.041-0.357,1.503c-0.126,0.628-0.444,1.215-0.453,1.678c-0.008,0.647,0.196,0.995,0.143,1.289
					c-0.098,0.419-0.436,0.804-0.477,1.195c-0.032,0.223-0.047,0.813,0.111,1.147c0.204,0.407-0.143,0.768-0.321,1.202
					c-0.172,0.409-0.353,1.106-0.297,1.597c0.073,0.674,0.46,0.92,0.161,1.452c-0.497,0.862-1.114,2.212-0.027,3.938
					c0.202,0.311-0.453,0.92-0.491,1.824c-0.043,0.97,0.543,1.695,0.707,2.129c0.033,0.155-0.258,0.147-0.271,0.314
					c-2.594-2.747-4.892-5.279-7.901-7.66c-1.841-1.455-3.661-2.679-5.703-3.765c-5.439-2.924-11.768-4.881-17.5-4.164
					c2.159,1.739,4.884,2.977,7.103,4.948c2.097,1.874,4.001,3.469,5.915,5.459c3.002,3.121,5.444,6.283,7.987,9.953
					c0.755,1.086,1.254,1.813,1.956,2.947c0.709,1.131,1.498,2.338,2.145,3.464c3.256,5.648,5.919,10.881,8.612,16.667
					c0.75,1.602,1.379,3.279,2.115,4.868c0.194,0.432,0.479,0.113,0.674,0c0.978-0.566,2.016-1.04,3.029-1.515
					c0.81-0.367,1.545-0.626,2.264-0.904c1.825-0.695,3.558-1.069,5.469-1.467c3.193-0.67,8.926-0.534,8.926-0.534l10.875-0.004
					c0.066,0,0.141,0,0.296,0c-0.116-3.118-0.855-6.142-1.033-9.271c-0.137-2.531-0.057-4.976,0.035-7.521
					C137.127,111.97,138.14,104.59,139.675,98.323z M126.938,103.767c0.208,0.604,0.488,1.047,0.249,1.65
					c-0.274,0.738-0.993,0.837-1.664,1.083c-0.631,0.225-1.68,0.518-2.205-0.035c-0.605-0.621-0.851-1.902-0.125-2.446
					C124.135,103.319,126.448,102.354,126.938,103.767z M119.187,116.218c-0.734,0.83-1.93,0.802-3.102,1.145
					c-0.45,0.131-0.991-0.263-1.223-0.678c-0.434-0.776-0.867-1.808-0.038-2.557c0.691-0.629,1.627-0.577,2.465-0.823
					c0.379-0.117,0.841-0.248,1.304,0.06C119.542,114.015,119.905,115.402,119.187,116.218z M120.648,119.177
					c0.242,0.954,0,1.86-0.843,2.163c-1.09,0.382-2.562,0.945-3.432,0.356c-0.994-0.664-1.476-2.562-0.332-3.3
					C117.39,117.513,120.078,116.931,120.648,119.177z M106.832,93.834c0.296-0.842,1.347-0.792,2.14-0.694
					c0.981,0.129,1.176,1.384,0.825,1.914c-0.479,0.725-1.571,0.587-2.446,0.477C106.64,95.437,106.597,94.497,106.832,93.834z
					 M106.62,91.047c0.079-0.25,0.19-0.325,0.349-0.403c0.664-0.318,1.4-0.406,2.039,0.009c0.463,0.296,0.422,0.985,0.082,1.338
					c-0.503,0.531-1.517,0.552-2.166,0.206C106.502,91.979,106.483,91.46,106.62,91.047z M113.041,92.441
					c-0.788,0.491-1.92,0.689-2.677,0.27c-0.651-0.356-0.623-1.309-0.303-1.822c0.537-0.858,1.852-0.948,2.77-0.686
					C113.617,90.438,113.913,91.898,113.041,92.441z M114.031,93.719c0.705,0.396,0.847,1.519,0.425,2.165
					c-0.569,0.862-2.501,1.361-3.542,0.609c-0.598-0.435-0.914-2.195,0.302-2.619C112.187,93.531,113.121,93.201,114.031,93.719z
					 M107.305,96.66c0.933-0.382,2.676-0.727,2.97,0.612c0.396,1.777-1.701,2.069-2.824,1.762
					C106.59,98.796,106.432,97.012,107.305,96.66z M107.184,100.665c0.761-0.89,2.033-1.103,3.085-0.811
					c0.645,0.174,0.944,0.923,0.922,1.761c-0.008,0.482-0.334,0.828-0.629,0.951c-0.746,0.303-1.609,0.525-2.433,0.43
					C107.126,102.871,106.508,101.463,107.184,100.665z M107.695,104.348c0.732-0.747,2.042-0.794,3.067-0.657
					c0.63,0.087,0.903,0.726,0.987,1.415c0.249,1.898-2.303,2.221-3.519,1.777C107.437,106.589,107.018,105.049,107.695,104.348z
					 M111.358,99.574c-0.628-1.945,1.8-2.559,3.214-2.257c0.987,0.207,1.32,2.105,0.398,2.698
					C113.836,100.753,111.82,100.993,111.358,99.574z M121.141,101.744c-0.547,1.009-2.409,1.134-3.241,1.027
					c-0.593-0.08-1.008-1.027-0.988-1.823c0.006-0.406,0.131-0.679,0.415-0.827c0.923-0.504,1.876-0.833,2.874-0.673
					C121.171,99.609,121.553,100.98,121.141,101.744z M121.65,103.722c0.368,0.582,0.624,1.364,0.076,2.09
					c-0.489,0.661-2.254,0.969-3.149,0.753c-0.5-0.122-0.729-0.722-0.807-1.132c-0.103-0.543-0.158-1.099,0.332-1.542
					c0.698-0.643,1.627-0.631,2.523-0.631C120.992,103.261,121.513,103.503,121.65,103.722z M120.281,97.826
					c-0.641,0.958-3.214,1.552-3.78,0.575c-0.421-0.716-0.678-1.726,0.104-2.207c0.818-0.501,1.786-0.802,2.743-0.628
					C120.243,95.723,120.697,97.192,120.281,97.826z M118.475,94.593c-0.449,0.406-0.91,0.495-1.502,0.694
					c-0.844,0.284-1.719-0.359-1.816-1.164c-0.159-1.374,1.312-1.58,2.283-1.749c0.712-0.132,1.153,0.51,1.282,0.938
					C118.855,93.724,118.841,94.277,118.475,94.593z M112.463,101.796c1.069-0.614,3.36-1.416,3.904,0.327
					c0.217,0.713,0.191,1.595-0.418,1.911c-0.876,0.461-2.264,0.943-3.267,0.311C111.833,103.813,111.724,102.218,112.463,101.796z
					 M113.398,105.801c1.122-0.785,3.332-1.296,3.863,0.425c0.137,0.446,0.215,0.938-0.012,1.298
					c-0.616,0.995-2.192,1.259-3.241,1.109C112.871,108.467,112.335,106.554,113.398,105.801z M114.234,109.757
					c0.927-0.47,2.267-1.041,3.264-0.397c0.453,0.292,0.926,1.505,0.604,2.045c-0.685,1.144-2.489,1.437-3.63,1.14
					C113.496,112.291,113.205,110.279,114.234,109.757z M118.716,109.688c-0.229-0.576-0.438-1.44,0.016-1.797
					c0.924-0.727,3.014-1.357,3.807-0.26c0.517,0.712,0.365,1.927-0.54,2.395C121.067,110.503,119.242,111.051,118.716,109.688z
					 M124.972,99.199c0.444,0.05,0.842,0.538,1.058,1.073c0.283,0.692-0.003,1.504-0.227,1.65c-0.533,0.369-2.225,1.386-3.291,0.772
					c-0.585-0.335-0.751-1.101-0.789-1.557C121.605,99.667,123.834,99.074,124.972,99.199z M124.557,96.676
					c0.322,0.449,0.248,1.234,0.062,1.484c-0.588,0.799-2.214,1.258-2.895,0.927c-0.513-0.251-1.013-1.379-0.412-2.05
					c0.618-0.707,1.704-1.124,2.693-0.918C124.225,96.168,124.366,96.409,124.557,96.676z M122.644,92.585
					c0.931,0.121,1.117,1.438,0.931,1.917c-0.216,0.414-0.681,0.73-0.931,0.859c-0.678,0.349-1.478,0.485-2.103,0.159
					c-0.569-0.298-0.819-1.16-0.509-1.844C120.449,92.759,121.774,92.475,122.644,92.585z M121.598,90.743
					c0.252,0.734-0.286,1.073-0.86,1.377c-0.577,0.31-1.352,0.595-1.75,0.211c-0.513-0.48-0.743-1.296-0.17-1.831
					C119.606,89.759,121.074,89.2,121.598,90.743z M119.171,87.639c0.426,0.038,0.625,0.334,0.701,0.654
					c0.111,0.433-0.031,0.832-0.399,1.078c-0.434,0.294-0.973,0.463-1.407,0.466c-0.586,0.013-1.127-0.849-0.811-1.405
					C117.591,87.832,118.437,87.576,119.171,87.639z M117.713,85.615c0.379,0.112,0.623,0.517,0.434,0.908
					c-0.119,0.24-0.461,0.503-0.681,0.636c-0.602,0.372-1.119,0.218-1.306-0.226C115.812,86.121,116.978,85.398,117.713,85.615z
					 M116.851,89.615c0.404,0.33,0.758,1.037,0.273,1.592c-0.453,0.524-1.022,0.68-1.742,0.801c-0.484,0.08-1.102-0.278-1.18-0.708
					c-0.077-0.37-0.145-1.045,0.224-1.354C115.138,89.341,116.095,88.99,116.851,89.615z M115.822,87.27
					c0.357,0.614-0.19,1.229-0.472,1.398c-0.621,0.361-1.494,0.585-1.872-0.03c-0.362-0.605-0.061-1.321,0.576-1.584
					C114.674,86.796,115.305,86.414,115.822,87.27z M112.402,85.245c0.328-0.724,1.153-1.084,1.946-0.841
					c0.16,0.048,0.483,0.306,0.529,0.558c0.096,0.502-0.077,0.955-0.497,1.224c-0.534,0.338-0.983,0.531-1.593,0.279
					C112.32,86.275,112.21,85.671,112.402,85.245z M112.73,88.292c-0.131,0.519-0.514,0.873-1.125,1.009
					c-0.602,0.136-1.438,0.171-1.774-0.201c-0.318-0.354-0.468-0.854-0.2-1.236c0.537-0.756,1.516-1.021,2.385-0.831
					C112.518,87.148,112.882,87.659,112.73,88.292z M109.059,85.379c0.239-0.79,1.137-1.223,1.953-0.984
					c0.699,0.207,0.863,1.161,0.389,1.625c-0.214,0.213-0.568,0.427-0.952,0.505C109.619,86.711,108.796,86.252,109.059,85.379z
					 M108.574,89.615c-0.738,0.213-1.764,0.256-1.984-0.502c-0.369-1.282,1.245-1.475,2.084-1.208
					C109.254,88.095,109.456,89.359,108.574,89.615z M106.474,86.346c0.058-0.198,0.366-0.434,0.531-0.487
					c0.348-0.129,0.763-0.153,1.103-0.017c0.674,0.278,0.587,1.109-0.137,1.403c-0.325,0.132-0.824,0.217-1.062,0.132
					C106.451,87.223,106.324,86.829,106.474,86.346z M104.356,87.815c0.471-0.171,1.166-0.156,1.51,0.217
					c0.467,0.512,0.098,1.333-0.792,1.29c-0.312-0.01-0.682-0.122-0.874-0.225C103.746,88.837,103.892,87.985,104.356,87.815z
					 M103.755,90.105c0.516-0.197,1.358-0.15,1.823,0.093c0.229,0.12,0.549,0.502,0.418,0.905c-0.165,0.525-0.656,0.712-1.211,0.723
					c-0.54,0.009-1.149-0.034-1.371-0.472C103.21,90.938,103.299,90.284,103.755,90.105z M105.701,92.941
					c0.254,0.115,0.408,0.314,0.471,0.627c0.121,0.666-0.055,1.397-0.693,1.519c-0.973,0.174-2.411,0.226-2.406-1.136
					C103.076,92.421,104.583,92.44,105.701,92.941z M103.022,96.079c0.869-0.368,2.368-0.537,2.983,0.443
					c0.378,0.602,0.268,1.706-0.342,1.869c-0.596,0.155-2.615,0.491-3.096-0.632C102.325,97.214,102.425,96.324,103.022,96.079z
					 M102.494,99.766c0.82-0.78,1.88-0.426,2.868-0.288c0.188,0.028,0.425,0.164,0.554,0.291c0.669,0.678,0.724,1.798-0.026,2.356
					c-0.87,0.646-1.95,0.227-2.991,0.172c-0.279-0.007-0.589-0.342-0.656-0.553C102.058,101.083,101.941,100.277,102.494,99.766z
					 M102.45,104.172c0.539-1.179,2.514-1.186,3.591-0.663c0.876,0.432,0.982,2.06,0.026,2.7c-0.759,0.511-1.964,0.326-2.776,0.173
					C102.145,106.174,102.054,105.042,102.45,104.172z M103.096,109.256c-0.56-0.485-0.172-1.322,0.314-1.568
					c0.857-0.426,2.201-0.487,3.085-0.189c0.57,0.189,0.857,1.014,0.758,1.91c-0.043,0.361-0.153,0.771-0.336,0.885
					c-0.679,0.464-1.722,0.481-2.544,0.311C103.791,110.482,103.582,109.684,103.096,109.256z M107.218,114.284
					c-0.844-0.619-1.214-1.496-1.835-2.364c-0.149-0.215,0-0.304,0.113-0.342c1.496-0.422,2.601,0.326,2.373,1.955
					C107.827,113.847,107.62,114.585,107.218,114.284z M108.226,108.759c0.091-0.405,0.542-0.6,0.923-0.697
					c0.983-0.244,2.079-0.611,2.983-0.036c0.354,0.222,0.382,0.536,0.425,0.982c0.081,0.713-0.023,1.3-0.496,1.573
					c-0.958,0.561-1.929,0.611-3.043,0.394C108.116,110.8,108.042,109.598,108.226,108.759z M109.484,112.347
					c1.213-0.79,3.53-1.371,3.918,0.762c0.121,0.642-0.042,1.493-0.91,1.774c-0.891,0.291-1.938,0.595-2.755,0.262
					C108.734,114.742,108.538,112.957,109.484,112.347z M109.175,117.412c-0.124-0.153-0.223-0.63-0.074-0.76
					c0.94-0.754,2.319-0.809,3.382-0.7c1.403,0.125,1.692,1.432,1.46,2.513c-0.308,1.422-2.469,1.598-3.082,1.363
					C110.261,119.6,109.836,118.234,109.175,117.412z M111.796,121.77c-0.148-0.216-0.451-0.844-0.225-0.917
					c1.808-0.623,3.159-0.642,3.544,1.283c0.273,1.382-0.669,2.559-1.984,2.079C112.751,124.075,112.378,122.608,111.796,121.77z
					 M115.554,128.595c-1.01-0.823-1.095-2.152-1.768-3.165c0.74-0.473,1.989-0.38,2.374,0.561c0.309,0.752,0.53,1.863-0.234,2.435
					C115.846,128.488,115.646,128.676,115.554,128.595z M117.006,132.092c-0.438-0.2-0.431-0.76-0.614-1.109
					c-0.174-0.344-0.541-0.817-0.392-1.26C116.848,130.197,117.238,131.035,117.006,132.092z M118.934,129.292
					c-0.201,0.57-0.288,1.158-0.542,1.704c-0.121,0.28-0.287-0.09-0.293-0.107c-0.381-0.942-0.623-1.741-0.294-2.576
					c0.184-0.459,0.81-0.886,1.409-0.924C119.175,127.98,119.132,128.715,118.934,129.292z M120.56,123.553
					c-0.263,0.743-0.392,1.43-0.688,2.102c-0.285,0.662-1.505,0.896-2.185,0.686c-0.969-0.301-1.795-2.475-0.696-3.305
					c0.84-0.633,1.717-0.734,2.785-0.863c0.195-0.025,0.911,0.019,0.94,0.087C120.897,122.711,120.782,122.937,120.56,123.553z
					 M122.015,118.572c-0.292,0.422-1.034-0.971-1.129-1.608c-0.28-1.851,1.338-2.316,2.689-2.259
					C123.618,115.806,122.76,117.513,122.015,118.572z M124.199,112.957c-0.397,1.06-1.58,1.177-2.594,1.391
					c-0.185,0.039-0.763,0-1.024-0.259c-0.434-0.427-0.812-1.01-0.734-1.736c0.04-0.448,0.412-0.892,0.877-1.067
					c0.84-0.326,1.839-0.855,2.67-0.387C124.106,111.295,124.483,112.207,124.199,112.957z M127.609,107.59
					c-0.714,0.941-1.041,2.013-1.824,2.835c-0.411,0.43-1.034,0.232-1.36-0.267c-0.358-0.561-0.938-1.353-0.504-1.904
					c0.708-0.906,2.191-1.485,3.464-1.323C127.457,106.94,127.868,107.238,127.609,107.59z M137.547,135.629
					C137.464,135.629,137.374,135.629,137.547,135.629L137.547,135.629z"/>
				<g>
					<path fill="#5289C3" d="M65.563,72.539c-2.124,2.117-2.757,2.895-3.99,5.236c-0.73,1.37-1.652,3.136-1.914,5.412
						c4.355-1.66,7.908-5.048,11.121-8.784c2.379-2.773,4.221-6.456,6.565-9.195C73.215,66.593,68.863,69.25,65.563,72.539z"/>
					<path fill="#5289C3" d="M53.082,78.484c1.644-2.775,3.996-5.774,6.44-7.824c-1.133,2.537-2.525,5.054-3.003,8.054
						c-0.95,5.978-1.842,10.168-2.833,15.62c2.708-1.93,5.568-4.969,8.446-7.089c2.219-1.636,4.446-2.726,6.731-4.292
						c1.355-0.938,2.238-2.137,3.368-3.266c-1.345,5.674-6.32,11.398-9.881,14.067c-4.483,3.356-6.088,3.894-13.277,11.205
						C48.158,95.929,48.317,86.539,53.082,78.484z"/>
					<path fill="#5289C3" d="M38.406,108.489c0.336-4.689,0.898-8.443,2.037-13.017c0.798-3.199,2.518-7.958,4.997-9.91
						c-0.302,1.164-0.462,2.899-0.578,4.069c-0.487,4.835,0.439,10.448,0.548,15.275c0.056,2.377,0.035,4.206-0.322,6.435
						c-0.367,2.337-0.061,5.212-0.061,5.212s1.283-1.465,2.425-3.289c2.504-3.973,3.301-5.148,5.318-7.306
						c2.502-2.666,5.297-5.138,8.455-7.331c-0.382,1.485-1.992,4.37-2.664,5.53c-0.887,1.552-1.289,2.958-3.395,6.473
						c-2.957,4.94-4.273,5.604-7.563,10.883c-0.713,1.142-3.631,5.516-4.337,6.847c-1.541-3.188-2.12-5.97-4.013-11.157
						C38.068,113.941,38.246,110.683,38.406,108.489z"/>
					<path fill="#5289C3" d="M33.833,132.897c-1.786-4.627-2.599-8.921-3.204-13.796c-0.372-2.977-0.203-6.953,0.863-9.82
						c0.281,0.699,0.847,2.479,0.929,2.742c0.789,2.666,1.121,3.942,2.226,6.507c0.847,1.978,1.885,3.544,2.987,5.493
						c1.006,1.773,1.855,4.107,2.588,5.902c2.343,5.737,2.517,11.109,3.409,11.693c0.647-1.383,0.85-2.702,0.922-3.352
						c0.701-6.349,1.531-12.117,9.526-19.604c0.735,2.226,0.36,6.336-0.078,8.535c-0.957,4.81-1.729,7.119-3.844,11.775
						c-1.118,2.461-2.617,6.07-3.026,7.266c-1.076,3.112-1.441,4.747-2.119,6.588C41.24,146.545,36.594,140.045,33.833,132.897z"/>
					<path fill="#5289C3" d="M40.058,161.828c-2.687-3.735-3.667-5.618-5.415-9.604c-1.472-3.333-1.893-4.575-2.752-8.315
						c-0.47-2.039-0.735-3.89-0.37-5.096c2.107,3.808,3.54,8.077,6.291,11.229c2.188,2.509,4.291,4.646,6.028,6.758
						c2.662,3.256,4.767,6.332,7.322,9.716c0.215-1.704,0.298-3.412-0.083-6.192c-0.521-3.811-0.202-6.933,0.466-10.623
						c0.838-4.674,1.455-6.994,3.085-11.727c1.982,3.895,1.975,8.401,2.475,12.533c0.962,8.016-1.547,17.572-2.039,21.559
						c-0.134,1.045,0.05,3.642,0.101,4.652c-3.746-2.962-7.085-5.945-10.32-9.181C43.374,166.065,41.354,163.631,40.058,161.828z"/>
					<path fill="#5289C3" d="M54.276,191.223c-1.711-1.223-6.3-4.734-8.47-7.498c-3.165-4.018-3.861-5.734-5.948-10.356
						c-0.256-0.57-1.438-3.183-1.531-4.951c6.837,8.252,12.958,9.477,19.478,16.329c2.394,2.511,4.851,4.872,6.14,6.062
						c0.993,0.902,2.229,1.191,2.229,1.191s-0.133-1.767-0.775-2.991c-4.349-8.318-5.172-17.013-4.513-26.337
						c1.985,2.454,2.611,4.097,3.872,6.472c1.372,2.59,2.073,4.2,2.715,5.791c3.72,9.267,4.693,19.968,6.99,25.354
						C67.36,197.899,61.765,196.62,54.276,191.223z"/>
					<path fill="#5289C3" d="M83.397,213.097c-1.926,0.123-5.685,0.109-7.699-0.219c-10.164-1.616-19.613-8.984-24.362-17.088
						c4.308,2.639,7.426,4.391,11.216,5.704c3.372,1.173,6.574,1.518,12.211,3.113c3.398,0.96,6.768,2.323,7.949,2.767
						c3.769,1.4,5.353,1.055,5.353,1.055s0-0.578-1.404-2.105c-2.809-3.07-3.831-3.798-6.146-6.154
						c-0.755-0.775-2.494-3.424-3.37-5.177c-2.5-4.962-2.774-8.944-5.057-14.403c8.318,4.896,12.364,11.622,16.759,20.114
						c1.352,2.604,3.182,5.613,4.849,7.264c1.125,1.101,2.71,2.788,2.71,2.788s-1.161,0.272-4.769,0.802
						C90.011,211.802,86.566,212.87,83.397,213.097z"/>
					<path fill="#5289C3" d="M123.688,213.737c4.395,0.712,8.295,1.786,12.284,3.159c1.074,0.365,2.705,1.173,3.836,1.75
						c2.83,1.433,4.46,2.369,6.891,4.039c3.916,2.695,8.121,5.607,11.914,10.018c0.082,0.089,0.695,0.74,0.288,1.063
						c-0.743,0.584-2.573,1.408-3.183,0.875c-3.48-3.095-3.3-4.08-7.507-7.892c-1.081-0.97-2.713-2.338-4.657-3.668
						c-1.903-1.296-4.199-2.715-6.333-3.776c-1.935-0.953-4.923-1.236-6.602-1.236l0.029,0.01c-0.766-0.025-5.143-0.045-6.156,0.013
						c-8.6,0.591-8.183,1.361-13.141,2.714c-4.083,1.1-8.458,1.885-12.802,2.472c-4.453,0.605-8.429,0.683-12.607,0.255
						c-5.655-0.586-11.84-2.162-16.46-5.133c4.219,0.073,8.558,0.879,12.76,0.555c1.766-0.128,4.633-0.396,6.578-0.993
						c3.859-1.189,6.071-1.647,10.159-2.785c3.509-0.988,7.047-1.315,10.715-1.706C114.769,212.928,119.465,213.048,123.688,213.737
						z"/>
					<path fill="#5289C3" d="M202.349,72.539c2.124,2.117,2.761,2.895,3.995,5.236c0.73,1.37,1.659,3.136,1.924,5.412
						c-4.366-1.66-7.916-5.048-11.135-8.784c-2.377-2.773-4.217-6.456-6.562-9.195C194.699,66.593,199.052,69.25,202.349,72.539z"/>
					<path fill="#5289C3" d="M214.833,78.484c-1.646-2.775-3.997-5.774-6.433-7.824c1.139,2.734,2.801,6.133,2.999,8.054
						c0.604,6.023,1.838,10.168,2.834,15.62c-2.71-1.93-5.574-4.969-8.443-7.089c-2.221-1.636-4.449-2.726-6.733-4.292
						c-1.359-0.938-2.243-2.137-3.372-3.266c1.345,5.674,6.319,11.398,9.888,14.067c4.477,3.356,6.082,3.894,13.273,11.205
						C219.761,95.929,219.601,86.539,214.833,78.484z"/>
					<path fill="#5289C3" d="M229.508,108.489c-0.33-4.689-0.891-8.443-2.033-13.017c-0.795-3.199-2.52-7.958-5.002-9.91
						c0.304,1.164,0.468,2.899,0.585,4.069c0.488,4.835-0.433,10.448-0.549,15.275c-0.054,2.377-0.036,4.206,0.317,6.435
						c0.37,2.337,0.065,5.212,0.065,5.212s-1.283-1.465-2.427-3.289c-2.502-3.973-3.297-5.148-5.324-7.306
						c-2.493-2.666-5.293-5.138-8.453-7.331c0.386,1.485,1.998,4.37,2.666,5.53c0.892,1.552,1.287,2.958,3.396,6.473
						c2.957,4.94,4.28,5.604,7.561,10.883c0.713,1.142,3.635,5.516,4.34,6.847c1.541-3.188,2.118-5.97,4.013-11.157
						C229.85,113.941,229.674,110.683,229.508,108.489z"/>
					<path fill="#5289C3" d="M234.083,132.897c1.786-4.627,2.604-8.921,3.209-13.796c0.37-2.977,0.194-6.953-0.866-9.82
						c-0.278,0.699-0.853,2.479-0.929,2.742c-0.794,2.666-1.122,3.942-2.226,6.507c-0.845,1.978-1.883,3.544-2.991,5.493
						c-1.005,1.773-1.86,4.107-2.589,5.902c-2.341,5.737-2.516,11.109-3.406,11.693c-0.648-1.383-0.853-2.702-0.919-3.352
						c-0.695-6.349-1.537-12.117-9.531-19.604c-0.735,2.226-0.361,6.336,0.08,8.535c0.956,4.81,1.735,7.119,3.851,11.775
						c1.112,2.461,2.608,6.07,3.022,7.266c1.067,3.112,1.434,4.747,2.116,6.588C226.679,146.545,231.322,140.045,234.083,132.897z"
						/>
					<path fill="#5289C3" d="M227.858,161.828c2.688-3.735,3.67-5.618,5.417-9.604c1.47-3.333,1.892-4.575,2.751-8.315
						c0.473-2.039,0.732-3.89,0.37-5.096c-2.096,3.808-3.544,8.077-6.294,11.229c-2.181,2.509-4.288,4.646-6.022,6.758
						c-2.659,3.256-4.768,6.332-7.326,9.716c-0.211-1.704-0.298-3.412,0.083-6.192c0.523-3.811,0.202-6.933-0.46-10.623
						c-0.846-4.674-1.461-6.994-3.092-11.727c-1.979,3.895-1.969,8.401-2.473,12.533c-0.965,8.016,1.551,17.572,2.042,21.559
						c0.128,1.045-0.054,3.642-0.105,4.652c3.75-2.962,7.086-5.945,10.32-9.181C224.545,166.065,226.56,163.631,227.858,161.828z"/>
					<path fill="#5289C3" d="M213.646,191.223c1.705-1.223,6.295-4.734,8.466-7.498c3.162-4.018,3.862-5.734,5.947-10.356
						c0.253-0.57,1.437-3.183,1.531-4.951c-6.832,8.252-12.957,9.477-19.483,16.329c-2.392,2.511-4.835,4.872-6.132,6.062
						c-0.99,0.902-2.228,1.191-2.228,1.191s0.127-1.767,0.769-2.991c4.357-8.318,5.171-17.013,4.513-26.337
						c-1.977,2.454-2.609,4.097-3.87,6.472c-1.37,2.59-2.069,4.2-2.703,5.791c-3.728,9.267-4.704,19.968-7.005,25.354
						C200.562,197.899,206.149,196.62,213.646,191.223z"/>
					<path fill="#5289C3" d="M184.52,213.097c1.929,0.123,5.691,0.109,7.7-0.219c10.166-1.616,19.614-8.984,24.36-17.088
						c-4.312,2.639-7.426,4.391-11.213,5.704c-3.376,1.173-6.578,1.518-12.203,3.113c-3.407,0.96-6.771,2.323-7.958,2.767
						c-3.769,1.4-5.354,1.055-5.354,1.055s0-0.578,1.404-2.105c2.81-3.07,3.842-3.798,6.144-6.154
						c0.756-0.775,2.496-3.424,3.38-5.177c2.492-4.962,2.773-8.944,5.051-14.403c-8.314,4.896-12.371,11.622-16.762,20.114
						c-1.351,2.604-3.176,5.613-4.847,7.264c-1.122,1.101-2.708,2.788-2.708,2.788s1.156,0.272,4.779,0.802
						C177.903,211.802,181.35,212.87,184.52,213.097z"/>
					<path fill="#5289C3" d="M144.227,213.737c-4.386,0.712-8.286,1.786-12.277,3.159c-1.081,0.365-2.713,1.173-3.84,1.75
						c-2.829,1.433-4.451,2.369-6.886,4.039c-3.922,2.695-8.123,5.607-11.921,10.018c-0.081,0.089-0.694,0.74-0.287,1.063
						c0.744,0.584,2.582,1.408,3.186,0.875c3.475-3.095,3.3-4.08,7.51-7.892c1.074-0.97,2.704-2.338,4.655-3.668
						c1.901-1.296,4.193-2.715,6.327-3.776c1.934-0.953,4.929-1.236,6.603-1.236l-0.026,0.01c0.762-0.025,5.139-0.045,6.152,0.013
						c8.608,0.591,8.185,1.361,13.141,2.714c4.082,1.1,8.458,1.885,12.803,2.472c4.451,0.605,8.438,0.683,12.611,0.255
						c5.651-0.586,11.841-2.162,16.452-5.133c-4.215,0.073-8.551,0.879-12.755,0.555c-1.77-0.128-4.632-0.396-6.578-0.993
						c-3.852-1.189-6.072-1.647-10.156-2.785c-3.511-0.988-7.05-1.315-10.716-1.706C153.148,212.928,148.45,213.048,144.227,213.737
						z"/>
				</g>
			</g>
			<g>
				<path fill="#5289C3" d="M128.798,24.862l-7.728,28.695h-8.2l-5.131-18.694l-5.019,18.694h-8.178L86.81,24.862h7.724l4.4,19.751
					l5.301-19.751h7.378l5.024,19.751l4.617-19.751H128.798z"/>
				<path fill="#5289C3" d="M154.293,30.412H141.09v5.336h12.236v5.548H141.09v12.261h-7.358V24.862h20.562V30.412z"/>
				<path fill="#5289C3" d="M183.078,33.921c0,1.286-0.227,2.54-0.675,3.764c-0.451,1.229-1.095,2.26-1.93,3.093
					c-1.139,1.131-2.419,1.988-3.821,2.565c-1.405,0.58-3.157,0.866-5.252,0.866h-4.604v9.349h-7.401V24.862h12.178
					c1.828,0,3.363,0.161,4.614,0.471c1.25,0.316,2.364,0.79,3.325,1.416c1.157,0.759,2.038,1.734,2.651,2.913
					C182.771,30.842,183.078,32.264,183.078,33.921z M175.431,34.085c0-0.812-0.223-1.503-0.654-2.087
					c-0.439-0.586-0.951-0.986-1.527-1.217c-0.77-0.309-1.52-0.478-2.256-0.512c-0.729-0.033-1.71-0.046-2.927-0.046h-1.271v8.57
					h2.119c1.261,0,2.299-0.072,3.11-0.227c0.816-0.155,1.501-0.464,2.054-0.923c0.476-0.413,0.822-0.899,1.034-1.472
					C175.316,35.601,175.431,34.905,175.431,34.085z"/>
			</g>
			<g>
				<path fill="#5289C3" d="M95.72,253.835l-5.158,16.645h-5.669l-3.389-11.216l-3.351,11.216h-5.719l-5.115-16.645h5.598
					l2.856,11.467l3.553-11.467h4.727l3.378,11.467l2.807-11.467H95.72z"/>
				<path fill="#5289C3" d="M110.605,251.327h-0.397c-0.239-0.059-0.546-0.141-0.928-0.228c-0.375-0.087-0.785-0.139-1.218-0.139
					c-1.045,0-1.75,0.186-2.122,0.569c-0.367,0.372-0.55,1.095-0.55,2.179v0.127h4.099v3.619h-3.923v13.026h-5.354v-13.026h-2.279
					v-3.619h2.279v-0.458c0-2.028,0.542-3.562,1.626-4.585c1.082-1.02,2.715-1.519,4.914-1.519c0.79,0,1.509,0.025,2.149,0.082
					c0.637,0.048,1.208,0.122,1.703,0.211V251.327z"/>
				<path fill="#5289C3" d="M130.007,261.935c0,1.364-0.21,2.621-0.627,3.748c-0.42,1.127-0.972,2.045-1.653,2.786
					c-0.71,0.769-1.513,1.346-2.412,1.745c-0.899,0.401-1.861,0.599-2.888,0.599c-0.943,0-1.75-0.101-2.411-0.31
					c-0.663-0.202-1.337-0.483-2.028-0.846v6.926h-5.349v-22.748h5.349v1.734c0.819-0.652,1.653-1.175,2.509-1.583
					c0.85-0.411,1.834-0.609,2.952-0.609c2.077,0,3.684,0.764,4.832,2.279C129.433,257.186,130.007,259.273,130.007,261.935z
					 M124.51,262.045c0-1.624-0.279-2.792-0.831-3.531c-0.554-0.722-1.423-1.086-2.618-1.086c-0.503,0-1.022,0.068-1.552,0.224
					c-0.534,0.156-1.04,0.381-1.522,0.665v8.353c0.352,0.143,0.734,0.234,1.137,0.27c0.407,0.045,0.805,0.06,1.202,0.06
					c1.407,0,2.462-0.413,3.146-1.233C124.163,264.936,124.51,263.701,124.51,262.045z"/>
				<path fill="#5289C3" d="M139.597,270.48h-5.547v-5.824h5.547V270.48z"/>
				<path fill="#5289C3" d="M161.849,262.167c0,2.739-0.806,4.898-2.397,6.47c-1.592,1.577-3.837,2.363-6.72,2.363
					c-2.89,0-5.126-0.786-6.722-2.363c-1.6-1.571-2.396-3.73-2.396-6.47c0-2.754,0.803-4.914,2.405-6.497
					c1.607-1.57,3.844-2.355,6.712-2.355c2.905,0,5.146,0.79,6.734,2.38C161.055,257.275,161.849,259.433,161.849,262.167z
					 M155.277,266.214c0.347-0.424,0.604-0.938,0.78-1.538c0.171-0.601,0.259-1.421,0.259-2.479c0-0.983-0.09-1.797-0.267-2.463
					c-0.178-0.655-0.425-1.183-0.74-1.583c-0.314-0.412-0.697-0.69-1.14-0.863c-0.44-0.168-0.923-0.255-1.438-0.255
					c-0.516,0-0.975,0.076-1.373,0.219c-0.399,0.126-0.784,0.403-1.146,0.824c-0.328,0.389-0.591,0.918-0.779,1.58
					c-0.196,0.675-0.293,1.525-0.293,2.541c0,0.908,0.085,1.692,0.257,2.364c0.168,0.668,0.409,1.203,0.74,1.603
					c0.311,0.389,0.695,0.67,1.134,0.846c0.436,0.176,0.942,0.265,1.505,0.265c0.48,0,0.946-0.08,1.387-0.242
					C154.602,266.879,154.969,266.597,155.277,266.214z"/>
				<path fill="#5289C3" d="M177.734,258.925h-0.469c-0.229-0.082-0.595-0.145-1.096-0.178c-0.506-0.047-0.922-0.063-1.258-0.063
					c-0.763,0-1.431,0.054-2.01,0.148c-0.584,0.098-1.209,0.27-1.884,0.508v11.14h-5.348v-16.645h5.348v2.442
					c1.173-1.001,2.201-1.67,3.064-2.006c0.868-0.333,1.667-0.488,2.395-0.488c0.187,0,0.398,0.005,0.639,0.014
					c0.233,0.007,0.441,0.02,0.619,0.039V258.925z"/>
				<path fill="#5289C3" d="M196.945,268.571c0,1.561-0.222,2.869-0.67,3.935c-0.444,1.078-1.065,1.904-1.869,2.508
					c-0.797,0.611-1.758,1.063-2.891,1.333c-1.138,0.271-2.412,0.404-3.836,0.404c-1.152,0-2.296-0.062-3.417-0.206
					c-1.119-0.139-2.092-0.311-2.912-0.506v-4.168h0.649c0.653,0.259,1.451,0.5,2.386,0.704c0.939,0.221,1.775,0.327,2.514,0.327
					c0.99,0,1.791-0.094,2.411-0.276c0.616-0.182,1.088-0.443,1.408-0.779c0.305-0.32,0.527-0.729,0.668-1.217
					c0.137-0.496,0.205-1.087,0.205-1.779v-0.309c-0.638,0.524-1.351,0.943-2.131,1.243c-0.779,0.311-1.647,0.458-2.607,0.458
					c-2.323,0-4.121-0.701-5.387-2.104c-1.261-1.399-1.894-3.541-1.894-6.405c0-1.376,0.195-2.55,0.58-3.559
					c0.385-0.989,0.926-1.86,1.626-2.605c0.65-0.695,1.452-1.233,2.405-1.613c0.957-0.387,1.928-0.579,2.925-0.579
					c0.898,0,1.715,0.102,2.449,0.323c0.734,0.205,1.403,0.494,2.008,0.876l0.188-0.742h5.191V268.571z M191.591,265.239v-7.546
					c-0.307-0.131-0.677-0.231-1.115-0.311c-0.453-0.074-0.854-0.105-1.205-0.105c-1.396,0-2.454,0.41-3.151,1.207
					c-0.698,0.802-1.049,1.928-1.049,3.375c0,1.595,0.3,2.715,0.896,3.343c0.591,0.642,1.479,0.951,2.655,0.951
					c0.53,0,1.055-0.084,1.565-0.255C190.701,265.729,191.171,265.515,191.591,265.239z"/>
			</g>
			<g>
				<path fill="#5289C3" d="M314.57,132.457l-10.7,39.722h-11.359l-7.105-25.875l-6.948,25.875h-11.33l-10.695-39.722h10.692
					l6.098,27.349l7.332-27.349h10.214l6.955,27.349l6.403-27.349H314.57z"/>
				<path fill="#5289C3" d="M349.856,157.217c0,4.93-1.444,8.803-4.314,11.646c-2.871,2.84-6.902,4.254-12.095,4.254
					c-5.194,0-9.225-1.414-12.107-4.254c-2.868-2.843-4.299-6.716-4.299-11.646c0-4.961,1.438-8.858,4.335-11.688
					c2.889-2.83,6.906-4.239,12.071-4.239c5.228,0,9.273,1.42,12.13,4.268C348.429,148.404,349.856,152.289,349.856,157.217z
					 M338.041,164.5c0.615-0.763,1.076-1.689,1.392-2.759c0.32-1.073,0.465-2.572,0.465-4.477c0-1.758-0.16-3.233-0.472-4.43
					c-0.324-1.189-0.77-2.139-1.342-2.846c-0.561-0.731-1.248-1.25-2.048-1.55c-0.808-0.302-1.659-0.451-2.589-0.451
					c-0.928,0-1.746,0.125-2.475,0.372c-0.719,0.249-1.406,0.748-2.055,1.493c-0.592,0.694-1.066,1.646-1.414,2.855
					c-0.346,1.211-0.52,2.726-0.52,4.557c0,1.64,0.156,3.064,0.463,4.255c0.297,1.203,0.736,2.166,1.331,2.903
					c0.573,0.694,1.242,1.202,2.044,1.514c0.79,0.323,1.688,0.487,2.707,0.487c0.871,0,1.694-0.15,2.498-0.439
					C336.814,165.681,337.477,165.195,338.041,164.5z"/>
				<path fill="#5289C3" d="M378.461,151.375h-0.856c-0.41-0.143-1.074-0.249-1.973-0.318c-0.902-0.076-1.656-0.11-2.264-0.11
					c-1.366,0-2.573,0.087-3.622,0.268c-1.049,0.176-2.17,0.48-3.383,0.907v20.058h-9.63v-29.958h9.63v4.405
					c2.123-1.815,3.959-3.019,5.517-3.618c1.563-0.591,2.995-0.891,4.308-0.891c0.335,0,0.726,0.01,1.152,0.023
					c0.426,0.023,0.798,0.045,1.122,0.081V151.375z"/>
				<path fill="#5289C3" d="M393.526,172.179h-9.636v-41.507h9.636V172.179z"/>
				<path fill="#5289C3" d="M431.707,172.179h-9.634v-3.121c-1.651,1.357-3.2,2.35-4.63,2.994c-1.446,0.638-3.103,0.961-4.992,0.961
					c-3.642,0-6.547-1.405-8.729-4.221c-2.197-2.804-3.281-6.601-3.281-11.366c0-2.537,0.364-4.795,1.109-6.759
					c0.73-1.968,1.743-3.646,3.014-5.057c1.21-1.336,2.68-2.37,4.4-3.106c1.726-0.738,3.451-1.108,5.175-1.108
					c1.786,0,3.258,0.191,4.413,0.572c1.142,0.385,2.312,0.868,3.522,1.458v-12.754h9.634V172.179z M422.072,163.936v-14.721
					c-0.677-0.285-1.382-0.488-2.122-0.614c-0.748-0.131-1.433-0.187-2.056-0.187c-2.517,0-4.41,0.786-5.666,2.363
					c-1.264,1.578-1.894,3.762-1.894,6.561c0,2.938,0.512,5.075,1.516,6.401c1.014,1.325,2.641,1.99,4.881,1.99
					c0.871,0,1.786-0.168,2.756-0.498C420.472,164.896,421.335,164.467,422.072,163.936z"/>
				<path fill="#5289C3" d="M489.822,140.142h-18.28v7.39h16.952v7.688h-16.952v16.96h-10.186v-39.722h28.466V140.142z"/>
				<path fill="#5289C3" d="M526.989,157.217c0,4.93-1.436,8.803-4.306,11.646c-2.883,2.84-6.91,4.254-12.107,4.254
					c-5.194,0-9.218-1.414-12.095-4.254c-2.87-2.843-4.312-6.716-4.312-11.646c0-4.961,1.448-8.858,4.336-11.688
					c2.886-2.83,6.919-4.239,12.071-4.239c5.227,0,9.275,1.42,12.13,4.268C525.562,148.404,526.989,152.289,526.989,157.217z
					 M515.164,164.5c0.623-0.763,1.096-1.689,1.403-2.759c0.315-1.073,0.461-2.572,0.461-4.477c0-1.758-0.15-3.233-0.474-4.43
					c-0.323-1.189-0.768-2.139-1.328-2.846c-0.576-0.731-1.264-1.25-2.059-1.55c-0.799-0.302-1.661-0.451-2.592-0.451
					c-0.928,0-1.746,0.125-2.459,0.372c-0.73,0.249-1.421,0.748-2.074,1.493c-0.587,0.694-1.05,1.646-1.396,2.855
					c-0.349,1.211-0.519,2.726-0.519,4.557c0,1.64,0.141,3.064,0.449,4.255c0.297,1.203,0.749,2.166,1.329,2.903
					c0.572,0.694,1.256,1.202,2.046,1.514c0.789,0.323,1.69,0.487,2.706,0.487c0.872,0,1.708-0.15,2.496-0.439
					C513.945,165.681,514.619,165.195,515.164,164.5z"/>
				<path fill="#5289C3" d="M564.495,157.217c0,4.93-1.433,8.803-4.304,11.646c-2.87,2.84-6.91,4.254-12.109,4.254
					c-5.192,0-9.221-1.414-12.091-4.254c-2.869-2.843-4.31-6.716-4.31-11.646c0-4.961,1.447-8.858,4.336-11.688
					c2.891-2.83,6.916-4.239,12.064-4.239c5.237,0,9.277,1.42,12.13,4.268C563.072,148.404,564.495,152.289,564.495,157.217z
					 M552.679,164.5c0.617-0.763,1.09-1.689,1.397-2.759c0.315-1.073,0.473-2.572,0.473-4.477c0-1.758-0.161-3.233-0.485-4.43
					c-0.315-1.189-0.768-2.139-1.33-2.846c-0.577-0.731-1.261-1.25-2.057-1.55c-0.798-0.302-1.662-0.451-2.595-0.451
					c-0.915,0-1.741,0.125-2.458,0.372c-0.719,0.249-1.406,0.748-2.07,1.493c-0.593,0.694-1.054,1.646-1.4,2.855
					c-0.348,1.211-0.521,2.726-0.521,4.557c0,1.64,0.156,3.064,0.453,4.255c0.309,1.203,0.753,2.166,1.336,2.903
					c0.566,0.694,1.251,1.202,2.042,1.514c0.787,0.323,1.697,0.487,2.701,0.487c0.871,0,1.707-0.15,2.499-0.439
					C551.454,165.681,552.128,165.195,552.679,164.5z"/>
				<path fill="#5289C3" d="M600.509,172.179h-9.619v-3.121c-1.664,1.357-3.201,2.35-4.645,2.994
					c-1.434,0.638-3.104,0.961-4.977,0.961c-3.645,0-6.561-1.405-8.743-4.221c-2.186-2.804-3.278-6.601-3.278-11.366
					c0-2.537,0.364-4.795,1.104-6.759c0.735-1.968,1.747-3.646,3.031-5.057c1.204-1.336,2.671-2.37,4.387-3.106
					c1.722-0.738,3.448-1.108,5.174-1.108c1.798,0,3.268,0.191,4.409,0.572c1.146,0.385,2.326,0.868,3.538,1.458v-12.754h9.619
					V172.179z M590.89,163.936v-14.721c-0.679-0.285-1.387-0.488-2.135-0.614c-0.749-0.131-1.435-0.187-2.053-0.187
					c-2.519,0-4.415,0.786-5.67,2.363c-1.253,1.578-1.888,3.762-1.888,6.561c0,2.938,0.504,5.075,1.52,6.401
					c1.005,1.325,2.632,1.99,4.872,1.99c0.866,0,1.784-0.168,2.768-0.498C589.275,164.896,590.136,164.467,590.89,163.936z"/>
				<path fill="#5289C3" d="M292.53,196.604c0,1.773-0.308,3.514-0.933,5.215c-0.623,1.695-1.514,3.125-2.666,4.277
					c-1.587,1.563-3.348,2.75-5.297,3.551c-1.95,0.797-4.374,1.203-7.275,1.203h-6.376v12.938h-10.242v-39.73h16.863
					c2.527,0,4.653,0.222,6.389,0.659c1.736,0.432,3.266,1.087,4.602,1.954c1.602,1.051,2.821,2.397,3.671,4.037
					C292.111,192.347,292.53,194.304,292.53,196.604z M281.941,196.825c0-1.121-0.303-2.082-0.91-2.884
					c-0.602-0.805-1.306-1.373-2.107-1.684c-1.064-0.429-2.104-0.668-3.124-0.719c-1.011-0.038-2.363-0.055-4.053-0.055h-1.764
					v11.859h2.938c1.742,0,3.18-0.105,4.306-0.308c1.13-0.219,2.082-0.646,2.851-1.281c0.653-0.562,1.129-1.243,1.417-2.028
					C281.79,198.935,281.941,197.96,281.941,196.825z"/>
				<path fill="#5289C3" d="M319.932,202.976h-0.853c-0.4-0.134-1.063-0.251-1.97-0.314c-0.902-0.07-1.66-0.112-2.262-0.112
					c-1.362,0-2.57,0.085-3.617,0.267c-1.046,0.176-2.172,0.483-3.381,0.91v20.063h-9.635V193.83h9.635v4.395
					c2.11-1.803,3.95-3.012,5.51-3.609c1.563-0.597,3-0.891,4.312-0.891c0.339,0,0.716,0.009,1.141,0.021
					c0.43,0.016,0.799,0.042,1.12,0.084V202.976z"/>
				<path fill="#5289C3" d="M354.968,208.828c0,4.915-1.44,8.798-4.313,11.641c-2.869,2.832-6.9,4.254-12.093,4.254
					c-5.198,0-9.236-1.422-12.105-4.254c-2.873-2.843-4.303-6.727-4.303-11.641c0-4.973,1.439-8.871,4.334-11.693
					c2.888-2.831,6.91-4.241,12.074-4.241c5.226,0,9.27,1.418,12.125,4.269C353.534,200.007,354.968,203.896,354.968,208.828z
					 M343.15,216.097c0.62-0.753,1.083-1.68,1.4-2.75c0.303-1.081,0.462-2.57,0.462-4.475c0-1.755-0.162-3.234-0.475-4.429
					c-0.323-1.194-0.768-2.147-1.341-2.856c-0.565-0.724-1.251-1.24-2.044-1.551c-0.809-0.294-1.676-0.447-2.591-0.447
					c-0.933,0-1.748,0.131-2.473,0.368c-0.719,0.252-1.41,0.75-2.064,1.504c-0.589,0.694-1.06,1.646-1.408,2.859
					c-0.346,1.203-0.52,2.723-0.52,4.552c0,1.637,0.153,3.053,0.461,4.254c0.295,1.202,0.74,2.167,1.332,2.901
					c0.571,0.697,1.244,1.194,2.044,1.513c0.791,0.327,1.69,0.487,2.706,0.487c0.875,0,1.699-0.146,2.485-0.437
					C341.929,217.289,342.593,216.794,343.15,216.097z"/>
				<path fill="#5289C3" d="M389.945,220.343c0,2.816-0.402,5.18-1.202,7.097c-0.798,1.922-1.919,3.431-3.363,4.513
					c-1.432,1.105-3.17,1.898-5.214,2.391c-2.033,0.484-4.335,0.73-6.893,0.73c-2.081,0-4.136-0.12-6.154-0.369
					c-2.016-0.252-3.76-0.56-5.232-0.916v-7.491h1.165c1.174,0.462,2.601,0.881,4.287,1.272c1.691,0.378,3.196,0.562,4.533,0.562
					c1.771,0,3.22-0.164,4.334-0.494c1.094-0.322,1.95-0.792,2.539-1.399c0.543-0.563,0.948-1.301,1.199-2.187
					c0.251-0.885,0.373-1.95,0.373-3.204v-0.553c-1.151,0.942-2.437,1.684-3.838,2.244c-1.401,0.547-2.965,0.82-4.688,0.82
					c-4.202,0-7.429-1.258-9.703-3.794c-2.272-2.524-3.405-6.365-3.405-11.515c0-2.479,0.346-4.607,1.038-6.404
					c0.693-1.804,1.665-3.37,2.923-4.697c1.178-1.251,2.625-2.221,4.328-2.909c1.717-0.699,3.469-1.046,5.27-1.046
					c1.62,0,3.089,0.188,4.41,0.582c1.321,0.372,2.528,0.904,3.607,1.583l0.344-1.33h9.343V220.343z M380.317,214.343v-13.576
					c-0.547-0.232-1.227-0.416-2.021-0.555c-0.808-0.128-1.526-0.195-2.158-0.195c-2.521,0-4.412,0.722-5.678,2.172
					c-1.252,1.456-1.882,3.474-1.882,6.069c0,2.881,0.536,4.89,1.604,6.037c1.081,1.136,2.67,1.698,4.781,1.698
					c0.955,0,1.898-0.151,2.821-0.45C378.703,215.25,379.551,214.844,380.317,214.343z"/>
				<path fill="#5289C3" d="M419.698,202.976h-0.854c-0.409-0.134-1.063-0.251-1.973-0.314c-0.9-0.07-1.657-0.112-2.263-0.112
					c-1.367,0-2.561,0.085-3.623,0.267c-1.048,0.176-2.175,0.483-3.371,0.91v20.063h-9.632V193.83h9.632v4.395
					c2.109-1.803,3.945-3.012,5.506-3.609c1.562-0.597,3.002-0.891,4.317-0.891c0.338,0,0.715,0.009,1.144,0.021
					c0.426,0.016,0.793,0.042,1.117,0.084V202.976z"/>
				<path fill="#5289C3" d="M442.247,220.609c-0.518,0.398-1.166,0.863-1.931,1.421c-0.757,0.548-1.483,0.981-2.153,1.305
					c-0.942,0.429-1.928,0.738-2.935,0.949c-1.017,0.199-2.13,0.301-3.339,0.301c-2.839,0-5.227-0.879-7.148-2.635
					c-1.921-1.771-2.878-4.01-2.878-6.755c0-2.185,0.483-3.979,1.47-5.36c0.972-1.39,2.361-2.475,4.158-3.286
					c1.774-0.8,3.975-1.361,6.615-1.703c2.633-0.339,5.366-0.591,8.19-0.75v-0.16c0-1.655-0.682-2.796-2.028-3.425
					c-1.355-0.636-3.349-0.946-5.978-0.946c-1.58,0-3.273,0.274-5.062,0.845c-1.801,0.555-3.09,0.986-3.875,1.285h-0.877v-7.228
					c1.016-0.268,2.665-0.588,4.946-0.951c2.285-0.358,4.582-0.539,6.867-0.539c5.464,0,9.405,0.842,11.833,2.519
					c2.428,1.677,3.639,4.318,3.639,7.907v20.386h-9.514V220.609z M442.247,215.955v-6.229c-1.299,0.109-2.716,0.258-4.221,0.44
					c-1.508,0.183-2.663,0.408-3.443,0.658c-0.962,0.293-1.69,0.733-2.198,1.311c-0.508,0.571-0.765,1.331-0.765,2.274
					c0,0.618,0.06,1.129,0.162,1.509c0.107,0.397,0.371,0.766,0.8,1.124c0.414,0.348,0.904,0.614,1.465,0.778
					c0.576,0.169,1.464,0.251,2.675,0.251c0.961,0,1.93-0.189,2.922-0.584C440.628,217.104,441.496,216.587,442.247,215.955z"/>
				<path fill="#5289C3" d="M488.824,202.549v21.24h-9.633v-14.961c0-1.462-0.033-2.711-0.103-3.724
					c-0.075-1.026-0.27-1.865-0.589-2.499c-0.316-0.636-0.804-1.109-1.448-1.398c-0.656-0.304-1.563-0.439-2.738-0.439
					c-0.946,0-1.856,0.19-2.751,0.565c-0.891,0.391-1.688,0.788-2.398,1.217v21.24h-9.629V193.83h9.629v3.305
					c1.652-1.298,3.234-2.311,4.75-3.042c1.505-0.732,3.172-1.097,5.003-1.097c1.972,0,3.713,0.441,5.217,1.32
					c1.517,0.891,2.695,2.175,3.547,3.884c1.914-1.606,3.788-2.886,5.602-3.815c1.812-0.917,3.582-1.388,5.322-1.388
					c3.229,0,5.694,0.97,7.369,2.916c1.671,1.934,2.516,4.725,2.516,8.373v19.504h-9.629v-14.961c0-1.479-0.029-2.73-0.096-3.749
					c-0.062-1.007-0.252-1.841-0.576-2.475c-0.294-0.636-0.782-1.109-1.434-1.398c-0.667-0.304-1.594-0.439-2.776-0.439
					c-0.798,0-1.582,0.132-2.347,0.406C490.864,201.456,489.929,201.911,488.824,202.549z"/>
				<path fill="#5289C3" d="M545.605,202.549v21.24h-9.631v-14.961c0-1.462-0.043-2.711-0.105-3.724
					c-0.072-1.026-0.276-1.865-0.586-2.499c-0.325-0.636-0.814-1.109-1.456-1.398c-0.659-0.304-1.565-0.439-2.743-0.439
					c-0.936,0-1.853,0.19-2.741,0.565c-0.891,0.391-1.695,0.788-2.405,1.217v21.24h-9.63V193.83h9.63v3.305
					c1.655-1.298,3.232-2.311,4.749-3.042c1.503-0.732,3.172-1.097,5.011-1.097c1.964,0,3.704,0.441,5.219,1.32
					c1.504,0.891,2.693,2.175,3.535,3.884c1.928-1.606,3.787-2.886,5.599-3.815c1.817-0.917,3.586-1.388,5.328-1.388
					c3.24,0,5.693,0.97,7.369,2.916c1.686,1.934,2.517,4.725,2.517,8.373v19.504h-9.629v-14.961c0-1.479-0.031-2.73-0.095-3.749
					c-0.056-1.007-0.255-1.841-0.567-2.475c-0.308-0.636-0.782-1.109-1.446-1.398c-0.66-0.304-1.583-0.439-2.775-0.439
					c-0.794,0-1.58,0.132-2.346,0.406C547.635,201.456,546.701,201.911,545.605,202.549z"/>
				<path fill="#5289C3" d="M602.622,210.582h-21.99c0.146,2.346,1.037,4.149,2.68,5.391c1.652,1.238,4.075,1.858,7.273,1.858
					c2.035,0,3.997-0.359,5.898-1.085c1.906-0.735,3.406-1.519,4.51-2.345h1.063v7.711c-2.167,0.869-4.209,1.498-6.131,1.884
					c-1.924,0.396-4.051,0.589-6.379,0.589c-6.009,0-10.615-1.345-13.818-4.058c-3.203-2.702-4.797-6.551-4.797-11.551
					c0-4.947,1.509-8.858,4.545-11.747c3.033-2.889,7.191-4.336,12.475-4.336c4.87,0,8.532,1.231,10.984,3.701
					c2.465,2.458,3.687,6.003,3.687,10.627V210.582z M593.074,204.954c-0.06-2.011-0.561-3.528-1.494-4.534
					c-0.943-1.021-2.413-1.525-4.405-1.525c-1.853,0-3.371,0.486-4.566,1.446c-1.194,0.959-1.856,2.501-1.999,4.613H593.074z"/>
			</g>
		</g>
	</g>
</g>
</svg>
