<?xml version="1.0" encoding="UTF-8" standalone="no"?>
<!-- Created with Inkscape (http://www.inkscape.org/) -->

<svg
   xmlns:dc="http://purl.org/dc/elements/1.1/"
   xmlns:cc="http://creativecommons.org/ns#"
   xmlns:rdf="http://www.w3.org/1999/02/22-rdf-syntax-ns#"
   xmlns:svg="http://www.w3.org/2000/svg"
   xmlns="http://www.w3.org/2000/svg"
   version="1.1"
   width="300"
   height="97.545982"
   id="svg6797">
  <defs
     id="defs6799">
    <clipPath
       id="clipPath226">
      <path
         d="m 263.215,237.239 3.952,5.61 -2.898,0 -2.444,-3.577 -2.442,3.577 -2.901,0 3.949,-5.61 -4.226,-6.012 2.9,0 2.72,3.981 5.651,-8.077 2.782,0 L 263.215,237.239 z m 54.807,5.61 -2.728,0 -4.055,-7.405 -2.774,7.405 -2.621,0 3.896,-10.133 -3.014,-5.585 2.669,0 L 318.022,242.849 z m -48.375,0 -1.193,0 -1.382,-1.976 2.575,0 0,-9.646 2.528,0 0,9.646 2.579,0 0,1.976 -2.579,0 0,1.125 c 0,0.85 0.355,1.196 1.213,1.196 0.493,0 1.004,-0.097 1.366,-0.195 l 0,2.035 c -0.518,0.186 -1.237,0.307 -2.017,0.307 -1.936,0 -3.09,-1.267 -3.09,-3.38 L 269.647,242.849 z m 30.43,-1.976 0,-6.496 c 0,-2.12 1.152,-3.376 3.084,-3.376 0.641,0 1.278,0.077 1.76,0.226 l 0.305,2.017 c -0.145,-0.036 -0.674,-0.163 -1.142,-0.163 -1.052,0 -1.485,0.422 -1.485,1.469 l 0,6.323 2.906,0 -0.755,1.976 -2.151,0 0,4.197 -2.522,-1.283 0,-2.914 -1.84,0 0,-1.976 L 300.077,240.873 z m -12.993,2.208 c -1.189,0 -2.323,-0.499 -2.911,-1.281 l 0,1.049 -2.528,0 0,-11.622 2.528,0 0,6.783 c 0,1.884 0.814,2.925 2.296,2.925 1.609,0 2.296,-0.942 2.296,-3.145 l 0,-6.563 2.522,0 0,6.651 C 291.287,241.284 289.838,243.081 287.084,243.081 z m -8.14,-11.201 0,10.969 -2.528,0 0,-11.622 2.528,0 L 278.944,231.88 z m 17.467,0 0,10.969 -2.539,0 0,-11.622 2.539,0 0,0.653"
         id="path228" />
    </clipPath>
    <linearGradient
       x1="0"
       y1="0"
       x2="1"
       y2="0"
       id="linearGradient238"
       gradientUnits="userSpaceOnUse"
       gradientTransform="matrix(43.083,-29.888,-29.888,-43.083,263.712,253.272)"
       spreadMethod="pad">
      <stop
         id="stop240"
         style="stop-color:#870e12;stop-opacity:1"
         offset="0" />
      <stop
         id="stop242"
         style="stop-color:#ba151b;stop-opacity:1"
         offset="0.1" />
      <stop
         id="stop244"
         style="stop-color:#ed1c24;stop-opacity:1"
         offset="0.25" />
      <stop
         id="stop246"
         style="stop-color:#ba151b;stop-opacity:1"
         offset="0.75" />
      <stop
         id="stop248"
         style="stop-color:#730b0e;stop-opacity:1"
         offset="1" />
    </linearGradient>
  </defs>
  <metadata
     id="metadata6802">
    <rdf:RDF>
      <cc:Work
         rdf:about="">
        <dc:format>image/svg+xml</dc:format>
        <dc:type
           rdf:resource="http://purl.org/dc/dcmitype/StillImage" />
        <cc:license
           rdf:resource="" />
        <dc:title></dc:title>
      </cc:Work>
    </rdf:RDF>
  </metadata>
  <g
     transform="translate(-889.85553,-314.53342)"
     id="layer1">
    <g
       transform="matrix(3.8824272,0,0,3.8824272,-171.52727,-2605.337)"
       id="g6762">
      <g
         transform="matrix(1.25,0,0,-1.25,-46.875,1061.1122)"
         id="g222">
        <g
           clip-path="url(#clipPath226)"
           id="g224">
          <g
             id="g230">
            <g
               id="g236">
              <path
                 d="m 253.893,247.231 64.129,0 0,-20.1 -64.129,0 L 253.893,247.231 Z"
                 id="path250"
                 style="fill:url(#linearGradient238);stroke:none" />
            </g>
          </g>
        </g>
      </g>
      <g
         transform="matrix(1.25,0,0,-1.25,347.9825,771.1547)"
         id="g252">
        <path
           d="m 0,0 c 0.18,0 0.285,0.088 0.285,0.225 l 0,0.007 C 0.285,0.378 0.18,0.457 0,0.457 l -0.36,0 L -0.36,0 0,0 z m -0.635,0.706 0.646,0 C 0.202,0.706 0.352,0.648 0.452,0.549 0.527,0.477 0.569,0.374 0.569,0.248 l 0,-0.008 c 0,-0.233 -0.137,-0.379 -0.337,-0.436 l 0.39,-0.546 -0.329,0 -0.351,0.499 -0.302,0 0,-0.499 -0.275,0 L -0.635,0.706 z m 1.797,-0.764 0,0.009 c 0,0.684 -0.532,1.238 -1.236,1.238 -0.707,0 -1.241,-0.562 -1.241,-1.247 l 0,-0.007 c 0,-0.686 0.53,-1.239 1.233,-1.239 C 0.627,-1.304 1.162,-0.742 1.162,-0.058 z m -2.623,-0.007 0,0.007 c 0,0.752 0.612,1.384 1.387,1.384 0.777,0 1.381,-0.624 1.381,-1.375 l 0,-0.009 c 0,-0.752 -0.612,-1.384 -1.389,-1.384 -0.775,0 -1.379,0.624 -1.379,1.377"
           id="path254"
           style="fill:#730b0e;fill-opacity:1;fill-rule:nonzero;stroke:none" />
      </g>
    </g>
  </g>
</svg>
