<svg xmlns="http://www.w3.org/2000/svg" width="68.884" height="38.04" viewBox="0 0 68.8841 38.04"><path fill="red" d="M8.12 30.11v-8.02L14.01 5.1h-2.5l-4.6 13.57L2.92 7.45H.19L5.61 22v8.11z"/><path d="M18.96 26.98c-.45.69-1.3 1.26-2.16 1.26-1.27 0-1.87-1.2-1.87-3.04 0-2.06.67-3.42 3.74-3.42h.29zm2.44-.48v-7.51c0-3.87-1.56-5.07-4.38-5.07-1.61 0-3.07.66-3.8 1.26l.47 2.19c.83-.73 1.91-1.39 3.17-1.39 1.4 0 2.1.88 2.1 2.98v.95h-.35c-4.47 0-6.22 2.15-6.22 5.58 0 3.14 1.56 4.85 3.84 4.85 1.4 0 2.28-.61 2.98-1.49h.16c.03.41.13.92.22 1.26h2.09c-.12-.76-.28-2.09-.28-3.61zm5.55-8.78c.57-.79 1.45-1.58 2.5-1.58.95 0 1.49.41 1.49 1.61v12.36h2.5V17.53c0-2.44-1.11-3.61-3.2-3.61-1.49 0-2.69.98-3.14 1.58h-.15v-1.39h-2.48v16h2.48zm13.78 12.62c1.3 0 2.19-.61 2.89-1.49h.16l.19 1.26h1.84V7.45h-2.48v7.07c-.47-.35-1.26-.6-2.02-.6-3.21 0-5.43 2.88-5.43 8.81 0 4.94 1.72 7.61 4.85 7.61zm2.6-3.33c-.41.63-1.07 1.23-2.31 1.23-1.81 0-2.5-2.28-2.5-6.02 0-3.26.95-6.27 2.94-6.27.83 0 1.37.25 1.87.76zm14.11 2.03l-.57-1.9c-.63.44-1.65 1.07-3.04 1.07-1.97 0-2.98-1.9-2.98-5.51h6.65v-1.37c0-5.42-1.74-7.41-4.4-7.41-3.39 0-4.82 3.74-4.82 8.87 0 4.92 2.03 7.55 5.32 7.55 1.59 0 2.83-.51 3.84-1.3zM53.1 15.95c1.42 0 1.87 1.99 1.87 4.72h-4.09c.16-2.85.7-4.72 2.22-4.72zm12.74-1.81l-2.19 5.8-2.06-5.8h-2.56l3.01 7.7-3.33 8.27h2.44l2.41-6.59 2.47 6.59h2.57l-3.33-8.49 2.98-7.48z"/></svg>